<svg id="Layer_1" data-name="Layer 1" xmlns="http://www.w3.org/2000/svg" viewBox="0 0 85.04 85.04"><defs><style>.cls-1{fill:#88b461;}.cls-2{fill:#72a439;}.cls-3,.cls-5{fill:none;stroke:#36572b;stroke-miterlimit:10;}.cls-3{stroke-width:5px;}.cls-4{fill:#ede33c;}.cls-5{stroke-width:3px;}.cls-6{fill:#36572b;}.cls-7{fill:#dc9727;}.cls-8{fill:#ce6d24;}</style></defs><title>FLOR</title><rect class="cls-1" width="85.04" height="85.04"/><path class="cls-2" d="M8.09,7.68,8,7.76a1.46,1.46,0,0,1-2,0L.41,2.41A1.34,1.34,0,0,1,.41.48L.5.4a1.47,1.47,0,0,1,2,0L8.09,5.75A1.32,1.32,0,0,1,8.09,7.68Z"/><path class="cls-2" d="M16.6,7.68l-.09.08a1.45,1.45,0,0,1-2,0L8.92,2.41a1.32,1.32,0,0,1,0-1.93L9,.4a1.47,1.47,0,0,1,2,0L16.6,5.75A1.34,1.34,0,0,1,16.6,7.68Z"/><path class="cls-2" d="M25.08,7.68,25,7.76a1.46,1.46,0,0,1-2,0L17.41,2.41a1.32,1.32,0,0,1,0-1.93L17.49.4a1.47,1.47,0,0,1,2,0l5.58,5.35A1.32,1.32,0,0,1,25.08,7.68Z"/><path class="cls-2" d="M33.59,7.68l-.09.08a1.45,1.45,0,0,1-2,0L25.91,2.41a1.32,1.32,0,0,1,0-1.93L26,.4a1.47,1.47,0,0,1,2,0l5.58,5.35A1.34,1.34,0,0,1,33.59,7.68Z"/><path class="cls-2" d="M42.07,7.68,42,7.76a1.46,1.46,0,0,1-2,0L34.4,2.41a1.32,1.32,0,0,1,0-1.93L34.48.4a1.48,1.48,0,0,1,2,0l5.57,5.35A1.32,1.32,0,0,1,42.07,7.68Z"/><path class="cls-2" d="M50.58,7.68l-.09.08a1.45,1.45,0,0,1-2,0L42.9,2.41a1.32,1.32,0,0,1,0-1.93L43,.4a1.47,1.47,0,0,1,2,0l5.58,5.35A1.34,1.34,0,0,1,50.58,7.68Z"/><path class="cls-2" d="M59.06,7.68,59,7.76a1.46,1.46,0,0,1-2,0L51.39,2.41a1.32,1.32,0,0,1,0-1.93L51.47.4a1.48,1.48,0,0,1,2,0l5.57,5.35A1.32,1.32,0,0,1,59.06,7.68Z"/><path class="cls-2" d="M67.57,7.68l-.09.08a1.45,1.45,0,0,1-2,0L59.89,2.41a1.34,1.34,0,0,1,0-1.93L60,.4a1.47,1.47,0,0,1,2,0l5.58,5.35A1.34,1.34,0,0,1,67.57,7.68Z"/><path class="cls-2" d="M76.05,7.68,76,7.76a1.46,1.46,0,0,1-2,0L68.38,2.41a1.32,1.32,0,0,1,0-1.93L68.46.4a1.48,1.48,0,0,1,2,0l5.57,5.35A1.32,1.32,0,0,1,76.05,7.68Z"/><path class="cls-2" d="M84.56,7.68l-.09.08a1.45,1.45,0,0,1-2,0L76.88,2.41a1.34,1.34,0,0,1,0-1.93L77,.4a1.47,1.47,0,0,1,2,0l5.58,5.35A1.34,1.34,0,0,1,84.56,7.68Z"/><path class="cls-2" d="M72.63,16.19l.09.09a1.47,1.47,0,0,0,2,0l5.58-5.35a1.33,1.33,0,0,0,0-1.93l-.09-.09a1.47,1.47,0,0,0-2,0l-5.58,5.35A1.32,1.32,0,0,0,72.63,16.19Z"/><path class="cls-2" d="M64.12,16.19l.09.09a1.47,1.47,0,0,0,2,0l5.58-5.35A1.32,1.32,0,0,0,71.8,9l-.08-.09a1.48,1.48,0,0,0-2,0l-5.58,5.35A1.34,1.34,0,0,0,64.12,16.19Z"/><path class="cls-2" d="M55.64,16.19l.08.09a1.48,1.48,0,0,0,2,0l5.58-5.35a1.33,1.33,0,0,0,0-1.93l-.09-.09a1.47,1.47,0,0,0-2,0l-5.58,5.35A1.32,1.32,0,0,0,55.64,16.19Z"/><path class="cls-2" d="M47.13,16.19l.09.09a1.47,1.47,0,0,0,2,0l5.58-5.35a1.32,1.32,0,0,0,0-1.93l-.08-.09a1.48,1.48,0,0,0-2,0l-5.58,5.35A1.34,1.34,0,0,0,47.13,16.19Z"/><path class="cls-2" d="M38.65,16.19l.08.09a1.48,1.48,0,0,0,2,0l5.57-5.35a1.32,1.32,0,0,0,0-1.93l-.08-.09a1.47,1.47,0,0,0-2,0l-5.58,5.35A1.32,1.32,0,0,0,38.65,16.19Z"/><path class="cls-2" d="M30.14,16.19l.09.09a1.47,1.47,0,0,0,2,0l5.58-5.35a1.32,1.32,0,0,0,0-1.93l-.09-.09a1.47,1.47,0,0,0-2,0l-5.58,5.35A1.34,1.34,0,0,0,30.14,16.19Z"/><path class="cls-2" d="M21.66,16.19l.08.09a1.48,1.48,0,0,0,2,0l5.57-5.35a1.32,1.32,0,0,0,0-1.93l-.08-.09a1.47,1.47,0,0,0-2,0l-5.58,5.35A1.32,1.32,0,0,0,21.66,16.19Z"/><path class="cls-2" d="M13.15,16.19l.09.09a1.47,1.47,0,0,0,2,0l5.58-5.35a1.32,1.32,0,0,0,0-1.93l-.09-.09a1.47,1.47,0,0,0-2,0l-5.58,5.35A1.34,1.34,0,0,0,13.15,16.19Z"/><path class="cls-2" d="M4.67,16.19l.08.09a1.48,1.48,0,0,0,2,0l5.57-5.35a1.32,1.32,0,0,0,0-1.93l-.08-.09a1.48,1.48,0,0,0-2,0L4.67,14.26A1.32,1.32,0,0,0,4.67,16.19Z"/><path class="cls-2" d="M3.84,9l-.09-.09a1.47,1.47,0,0,0-2,0L0,10.58v4l3.84-3.68A1.32,1.32,0,0,0,3.84,9Z"/><path class="cls-2" d="M81.2,14.26a1.34,1.34,0,0,0,0,1.93l.09.09a1.47,1.47,0,0,0,2,0L85,14.61v-4Z"/><path class="cls-2" d="M8.09,25,8,25.05a1.48,1.48,0,0,1-2,0L.41,19.7a1.34,1.34,0,0,1,0-1.93l.09-.09a1.47,1.47,0,0,1,2,0L8.09,23A1.32,1.32,0,0,1,8.09,25Z"/><path class="cls-2" d="M16.6,25l-.09.08a1.47,1.47,0,0,1-2,0L8.92,19.7a1.32,1.32,0,0,1,0-1.93L9,17.68a1.47,1.47,0,0,1,2,0L16.6,23A1.33,1.33,0,0,1,16.6,25Z"/><path class="cls-2" d="M25.08,25l-.08.08a1.48,1.48,0,0,1-2,0L17.41,19.7a1.32,1.32,0,0,1,0-1.93l.08-.09a1.47,1.47,0,0,1,2,0L25.08,23A1.32,1.32,0,0,1,25.08,25Z"/><path class="cls-2" d="M33.59,25l-.09.08a1.47,1.47,0,0,1-2,0L25.91,19.7a1.32,1.32,0,0,1,0-1.93l.09-.09a1.47,1.47,0,0,1,2,0L33.59,23A1.33,1.33,0,0,1,33.59,25Z"/><path class="cls-2" d="M42.07,25l-.08.08a1.48,1.48,0,0,1-2,0L34.4,19.7a1.32,1.32,0,0,1,0-1.93l.08-.09a1.48,1.48,0,0,1,2,0L42.07,23A1.32,1.32,0,0,1,42.07,25Z"/><path class="cls-2" d="M50.58,25l-.09.08a1.47,1.47,0,0,1-2,0L42.9,19.7a1.32,1.32,0,0,1,0-1.93l.09-.09a1.47,1.47,0,0,1,2,0L50.58,23A1.33,1.33,0,0,1,50.58,25Z"/><path class="cls-2" d="M59.06,25l-.08.08a1.48,1.48,0,0,1-2,0L51.39,19.7a1.32,1.32,0,0,1,0-1.93l.08-.09a1.48,1.48,0,0,1,2,0L59.06,23A1.32,1.32,0,0,1,59.06,25Z"/><path class="cls-2" d="M67.57,25l-.09.08a1.47,1.47,0,0,1-2,0L59.89,19.7a1.34,1.34,0,0,1,0-1.93l.09-.09a1.47,1.47,0,0,1,2,0L67.57,23A1.33,1.33,0,0,1,67.57,25Z"/><path class="cls-2" d="M76.05,25l-.08.08a1.48,1.48,0,0,1-2,0L68.38,19.7a1.32,1.32,0,0,1,0-1.93l.08-.09a1.48,1.48,0,0,1,2,0L76.05,23A1.32,1.32,0,0,1,76.05,25Z"/><path class="cls-2" d="M84.56,25l-.09.08a1.47,1.47,0,0,1-2,0L76.88,19.7a1.34,1.34,0,0,1,0-1.93l.09-.09a1.47,1.47,0,0,1,2,0L84.56,23A1.33,1.33,0,0,1,84.56,25Z"/><path class="cls-2" d="M72.63,33.48l.09.08a1.47,1.47,0,0,0,2,0l5.58-5.35a1.34,1.34,0,0,0,0-1.93l-.09-.08a1.47,1.47,0,0,0-2,0l-5.58,5.35A1.32,1.32,0,0,0,72.63,33.48Z"/><path class="cls-2" d="M64.12,33.48l.09.08a1.47,1.47,0,0,0,2,0l5.58-5.35a1.32,1.32,0,0,0,0-1.93l-.08-.08a1.48,1.48,0,0,0-2,0l-5.58,5.35A1.34,1.34,0,0,0,64.12,33.48Z"/><path class="cls-2" d="M55.64,33.48l.08.08a1.48,1.48,0,0,0,2,0l5.58-5.35a1.34,1.34,0,0,0,0-1.93l-.09-.08a1.47,1.47,0,0,0-2,0l-5.58,5.35A1.32,1.32,0,0,0,55.64,33.48Z"/><path class="cls-2" d="M47.13,33.48l.09.08a1.47,1.47,0,0,0,2,0l5.58-5.35a1.32,1.32,0,0,0,0-1.93l-.08-.08a1.48,1.48,0,0,0-2,0l-5.58,5.35A1.34,1.34,0,0,0,47.13,33.48Z"/><path class="cls-2" d="M38.65,33.48l.08.08a1.48,1.48,0,0,0,2,0l5.57-5.35a1.32,1.32,0,0,0,0-1.93l-.08-.08a1.47,1.47,0,0,0-2,0l-5.58,5.35A1.32,1.32,0,0,0,38.65,33.48Z"/><path class="cls-2" d="M30.14,33.48l.09.08a1.47,1.47,0,0,0,2,0l5.58-5.35a1.32,1.32,0,0,0,0-1.93l-.09-.08a1.47,1.47,0,0,0-2,0l-5.58,5.35A1.34,1.34,0,0,0,30.14,33.48Z"/><path class="cls-2" d="M21.66,33.48l.08.08a1.48,1.48,0,0,0,2,0l5.57-5.35a1.32,1.32,0,0,0,0-1.93l-.08-.08a1.47,1.47,0,0,0-2,0l-5.58,5.35A1.32,1.32,0,0,0,21.66,33.48Z"/><path class="cls-2" d="M13.15,33.48l.09.08a1.47,1.47,0,0,0,2,0l5.58-5.35a1.32,1.32,0,0,0,0-1.93l-.09-.08a1.47,1.47,0,0,0-2,0l-5.58,5.35A1.34,1.34,0,0,0,13.15,33.48Z"/><path class="cls-2" d="M4.67,33.48l.08.08a1.48,1.48,0,0,0,2,0l5.57-5.35a1.32,1.32,0,0,0,0-1.93l-.08-.08a1.48,1.48,0,0,0-2,0L4.67,31.55A1.32,1.32,0,0,0,4.67,33.48Z"/><path class="cls-2" d="M3.84,26.28l-.09-.08a1.47,1.47,0,0,0-2,0L0,27.87v4l3.84-3.69A1.32,1.32,0,0,0,3.84,26.28Z"/><path class="cls-2" d="M81.2,31.55a1.34,1.34,0,0,0,0,1.93l.09.08a1.47,1.47,0,0,0,2,0L85,31.9v-4Z"/><path class="cls-2" d="M8.09,42,8,42.08a1.48,1.48,0,0,1-2,0L.41,36.72a1.34,1.34,0,0,1,0-1.93l.09-.08a1.47,1.47,0,0,1,2,0l5.58,5.35A1.32,1.32,0,0,1,8.09,42Z"/><path class="cls-2" d="M16.6,42l-.09.09a1.47,1.47,0,0,1-2,0L8.92,36.72a1.32,1.32,0,0,1,0-1.93L9,34.71a1.47,1.47,0,0,1,2,0l5.58,5.35A1.34,1.34,0,0,1,16.6,42Z"/><path class="cls-2" d="M25.08,42l-.08.09a1.48,1.48,0,0,1-2,0l-5.57-5.36a1.32,1.32,0,0,1,0-1.93l.08-.08a1.47,1.47,0,0,1,2,0l5.58,5.35A1.32,1.32,0,0,1,25.08,42Z"/><path class="cls-2" d="M33.59,42l-.09.09a1.47,1.47,0,0,1-2,0l-5.58-5.36a1.32,1.32,0,0,1,0-1.93l.09-.08a1.47,1.47,0,0,1,2,0l5.58,5.35A1.34,1.34,0,0,1,33.59,42Z"/><path class="cls-2" d="M42.07,42l-.08.09a1.48,1.48,0,0,1-2,0L34.4,36.72a1.32,1.32,0,0,1,0-1.93l.08-.08a1.48,1.48,0,0,1,2,0l5.57,5.35A1.32,1.32,0,0,1,42.07,42Z"/><path class="cls-2" d="M50.58,42l-.09.09a1.47,1.47,0,0,1-2,0L42.9,36.72a1.32,1.32,0,0,1,0-1.93l.09-.08a1.47,1.47,0,0,1,2,0l5.58,5.35A1.34,1.34,0,0,1,50.58,42Z"/><path class="cls-2" d="M59.06,42l-.08.09a1.48,1.48,0,0,1-2,0l-5.57-5.36a1.32,1.32,0,0,1,0-1.93l.08-.08a1.48,1.48,0,0,1,2,0l5.57,5.35A1.32,1.32,0,0,1,59.06,42Z"/><path class="cls-2" d="M67.57,42l-.09.09a1.47,1.47,0,0,1-2,0l-5.58-5.36a1.34,1.34,0,0,1,0-1.93l.09-.08a1.47,1.47,0,0,1,2,0l5.58,5.35A1.34,1.34,0,0,1,67.57,42Z"/><path class="cls-2" d="M76.05,42l-.08.09a1.48,1.48,0,0,1-2,0l-5.57-5.36a1.32,1.32,0,0,1,0-1.93l.08-.08a1.48,1.48,0,0,1,2,0l5.57,5.35A1.32,1.32,0,0,1,76.05,42Z"/><path class="cls-2" d="M84.56,42l-.09.09a1.47,1.47,0,0,1-2,0l-5.58-5.36a1.34,1.34,0,0,1,0-1.93l.09-.08a1.47,1.47,0,0,1,2,0l5.58,5.35A1.34,1.34,0,0,1,84.56,42Z"/><path class="cls-2" d="M72.63,50.5l.09.09a1.47,1.47,0,0,0,2,0l5.58-5.35a1.34,1.34,0,0,0,0-1.93l-.09-.09a1.47,1.47,0,0,0-2,0l-5.58,5.35A1.32,1.32,0,0,0,72.63,50.5Z"/><path class="cls-2" d="M64.12,50.5l.09.09a1.47,1.47,0,0,0,2,0l5.58-5.35a1.32,1.32,0,0,0,0-1.93l-.08-.09a1.48,1.48,0,0,0-2,0l-5.58,5.35A1.33,1.33,0,0,0,64.12,50.5Z"/><path class="cls-2" d="M55.64,50.5l.08.09a1.48,1.48,0,0,0,2,0l5.58-5.35a1.34,1.34,0,0,0,0-1.93l-.09-.09a1.47,1.47,0,0,0-2,0l-5.58,5.35A1.32,1.32,0,0,0,55.64,50.5Z"/><path class="cls-2" d="M47.13,50.5l.09.09a1.47,1.47,0,0,0,2,0l5.58-5.35a1.32,1.32,0,0,0,0-1.93l-.08-.09a1.48,1.48,0,0,0-2,0l-5.58,5.35A1.33,1.33,0,0,0,47.13,50.5Z"/><path class="cls-2" d="M38.65,50.5l.08.09a1.48,1.48,0,0,0,2,0l5.57-5.35a1.32,1.32,0,0,0,0-1.93l-.08-.09a1.47,1.47,0,0,0-2,0l-5.58,5.35A1.32,1.32,0,0,0,38.65,50.5Z"/><path class="cls-2" d="M30.14,50.5l.09.09a1.47,1.47,0,0,0,2,0l5.58-5.35a1.32,1.32,0,0,0,0-1.93l-.09-.09a1.47,1.47,0,0,0-2,0l-5.58,5.35A1.33,1.33,0,0,0,30.14,50.5Z"/><path class="cls-2" d="M21.66,50.5l.08.09a1.48,1.48,0,0,0,2,0l5.57-5.35a1.32,1.32,0,0,0,0-1.93l-.08-.09a1.47,1.47,0,0,0-2,0l-5.58,5.35A1.32,1.32,0,0,0,21.66,50.5Z"/><path class="cls-2" d="M13.15,50.5l.09.09a1.47,1.47,0,0,0,2,0l5.58-5.35a1.32,1.32,0,0,0,0-1.93l-.09-.09a1.47,1.47,0,0,0-2,0l-5.58,5.35A1.33,1.33,0,0,0,13.15,50.5Z"/><path class="cls-2" d="M4.67,50.5l.08.09a1.48,1.48,0,0,0,2,0l5.57-5.35a1.32,1.32,0,0,0,0-1.93l-.08-.09a1.48,1.48,0,0,0-2,0L4.67,48.57A1.32,1.32,0,0,0,4.67,50.5Z"/><path class="cls-2" d="M3.84,43.31l-.09-.09a1.47,1.47,0,0,0-2,0L0,44.89v4l3.84-3.68A1.32,1.32,0,0,0,3.84,43.31Z"/><path class="cls-2" d="M81.2,48.57a1.33,1.33,0,0,0,0,1.93l.09.09a1.47,1.47,0,0,0,2,0L85,48.92v-4Z"/><path class="cls-2" d="M8.09,59,8,59.1a1.48,1.48,0,0,1-2,0L.41,53.75a1.34,1.34,0,0,1,0-1.93l.09-.08a1.45,1.45,0,0,1,2,0l5.58,5.35A1.32,1.32,0,0,1,8.09,59Z"/><path class="cls-2" d="M16.6,59l-.09.08a1.47,1.47,0,0,1-2,0L8.92,53.75a1.32,1.32,0,0,1,0-1.93L9,51.74a1.45,1.45,0,0,1,2,0l5.58,5.35A1.34,1.34,0,0,1,16.6,59Z"/><path class="cls-2" d="M25.08,59,25,59.1a1.48,1.48,0,0,1-2,0l-5.57-5.35a1.32,1.32,0,0,1,0-1.93l.08-.08a1.45,1.45,0,0,1,2,0l5.58,5.35A1.32,1.32,0,0,1,25.08,59Z"/><path class="cls-2" d="M33.59,59l-.09.08a1.47,1.47,0,0,1-2,0l-5.58-5.35a1.32,1.32,0,0,1,0-1.93l.09-.08a1.45,1.45,0,0,1,2,0l5.58,5.35A1.34,1.34,0,0,1,33.59,59Z"/><path class="cls-2" d="M42.07,59,42,59.1a1.48,1.48,0,0,1-2,0L34.4,53.75a1.32,1.32,0,0,1,0-1.93l.08-.08a1.46,1.46,0,0,1,2,0l5.57,5.35A1.32,1.32,0,0,1,42.07,59Z"/><path class="cls-2" d="M50.58,59l-.09.08a1.47,1.47,0,0,1-2,0L42.9,53.75a1.32,1.32,0,0,1,0-1.93l.09-.08a1.45,1.45,0,0,1,2,0l5.58,5.35A1.34,1.34,0,0,1,50.58,59Z"/><path class="cls-2" d="M59.06,59,59,59.1a1.48,1.48,0,0,1-2,0l-5.57-5.35a1.32,1.32,0,0,1,0-1.93l.08-.08a1.46,1.46,0,0,1,2,0l5.57,5.35A1.32,1.32,0,0,1,59.06,59Z"/><path class="cls-2" d="M67.57,59l-.09.08a1.47,1.47,0,0,1-2,0l-5.58-5.35a1.34,1.34,0,0,1,0-1.93l.09-.08a1.45,1.45,0,0,1,2,0l5.58,5.35A1.34,1.34,0,0,1,67.57,59Z"/><path class="cls-2" d="M76.05,59,76,59.1a1.48,1.48,0,0,1-2,0l-5.57-5.35a1.32,1.32,0,0,1,0-1.93l.08-.08a1.46,1.46,0,0,1,2,0l5.57,5.35A1.32,1.32,0,0,1,76.05,59Z"/><path class="cls-2" d="M84.56,59l-.09.08a1.47,1.47,0,0,1-2,0l-5.58-5.35a1.34,1.34,0,0,1,0-1.93l.09-.08a1.45,1.45,0,0,1,2,0l5.58,5.35A1.34,1.34,0,0,1,84.56,59Z"/><path class="cls-2" d="M72.63,67.53l.09.09a1.47,1.47,0,0,0,2,0l5.58-5.36a1.34,1.34,0,0,0,0-1.93l-.09-.08a1.47,1.47,0,0,0-2,0L72.63,65.6A1.32,1.32,0,0,0,72.63,67.53Z"/><path class="cls-2" d="M64.12,67.53l.09.09a1.47,1.47,0,0,0,2,0l5.58-5.36a1.32,1.32,0,0,0,0-1.93l-.08-.08a1.48,1.48,0,0,0-2,0L64.12,65.6A1.34,1.34,0,0,0,64.12,67.53Z"/><path class="cls-2" d="M55.64,67.53l.08.09a1.48,1.48,0,0,0,2,0l5.58-5.36a1.34,1.34,0,0,0,0-1.93l-.09-.08a1.47,1.47,0,0,0-2,0L55.64,65.6A1.32,1.32,0,0,0,55.64,67.53Z"/><path class="cls-2" d="M47.13,67.53l.09.09a1.47,1.47,0,0,0,2,0l5.58-5.36a1.32,1.32,0,0,0,0-1.93l-.08-.08a1.48,1.48,0,0,0-2,0L47.13,65.6A1.34,1.34,0,0,0,47.13,67.53Z"/><path class="cls-2" d="M38.65,67.53l.08.09a1.48,1.48,0,0,0,2,0l5.57-5.36a1.32,1.32,0,0,0,0-1.93l-.08-.08a1.47,1.47,0,0,0-2,0L38.65,65.6A1.32,1.32,0,0,0,38.65,67.53Z"/><path class="cls-2" d="M30.14,67.53l.09.09a1.47,1.47,0,0,0,2,0l5.58-5.36a1.32,1.32,0,0,0,0-1.93l-.09-.08a1.47,1.47,0,0,0-2,0L30.14,65.6A1.34,1.34,0,0,0,30.14,67.53Z"/><path class="cls-2" d="M21.66,67.53l.08.09a1.48,1.48,0,0,0,2,0l5.57-5.36a1.32,1.32,0,0,0,0-1.93l-.08-.08a1.47,1.47,0,0,0-2,0L21.66,65.6A1.32,1.32,0,0,0,21.66,67.53Z"/><path class="cls-2" d="M13.15,67.53l.09.09a1.47,1.47,0,0,0,2,0l5.58-5.36a1.32,1.32,0,0,0,0-1.93l-.09-.08a1.47,1.47,0,0,0-2,0L13.15,65.6A1.34,1.34,0,0,0,13.15,67.53Z"/><path class="cls-2" d="M4.67,67.53l.08.09a1.48,1.48,0,0,0,2,0l5.57-5.36a1.32,1.32,0,0,0,0-1.93l-.08-.08a1.48,1.48,0,0,0-2,0L4.67,65.6A1.32,1.32,0,0,0,4.67,67.53Z"/><path class="cls-2" d="M3.84,60.33l-.09-.08a1.47,1.47,0,0,0-2,0L0,61.92v4l3.84-3.69A1.32,1.32,0,0,0,3.84,60.33Z"/><path class="cls-2" d="M81.2,65.6a1.34,1.34,0,0,0,0,1.93l.09.09a1.47,1.47,0,0,0,2,0L85,66v-4Z"/><path class="cls-2" d="M8.09,76,8,76.13a1.48,1.48,0,0,1-2,0L.41,70.78a1.34,1.34,0,0,1,0-1.93l.09-.09a1.47,1.47,0,0,1,2,0l5.58,5.35A1.32,1.32,0,0,1,8.09,76Z"/><path class="cls-2" d="M16.6,76l-.09.09a1.47,1.47,0,0,1-2,0L8.92,70.78a1.32,1.32,0,0,1,0-1.93L9,68.76a1.47,1.47,0,0,1,2,0l5.58,5.35A1.34,1.34,0,0,1,16.6,76Z"/><path class="cls-2" d="M25.08,76l-.08.09a1.48,1.48,0,0,1-2,0l-5.57-5.35a1.32,1.32,0,0,1,0-1.93l.08-.09a1.47,1.47,0,0,1,2,0l5.58,5.35A1.32,1.32,0,0,1,25.08,76Z"/><path class="cls-2" d="M33.59,76l-.09.09a1.47,1.47,0,0,1-2,0l-5.58-5.35a1.32,1.32,0,0,1,0-1.93l.09-.09a1.47,1.47,0,0,1,2,0l5.58,5.35A1.34,1.34,0,0,1,33.59,76Z"/><path class="cls-2" d="M42.07,76l-.08.09a1.48,1.48,0,0,1-2,0L34.4,70.78a1.32,1.32,0,0,1,0-1.93l.08-.09a1.48,1.48,0,0,1,2,0l5.57,5.35A1.32,1.32,0,0,1,42.07,76Z"/><path class="cls-2" d="M50.58,76l-.09.09a1.47,1.47,0,0,1-2,0L42.9,70.78a1.32,1.32,0,0,1,0-1.93l.09-.09a1.47,1.47,0,0,1,2,0l5.58,5.35A1.34,1.34,0,0,1,50.58,76Z"/><path class="cls-2" d="M59.06,76l-.08.09a1.48,1.48,0,0,1-2,0l-5.57-5.35a1.32,1.32,0,0,1,0-1.93l.08-.09a1.48,1.48,0,0,1,2,0l5.57,5.35A1.32,1.32,0,0,1,59.06,76Z"/><path class="cls-2" d="M67.57,76l-.09.09a1.47,1.47,0,0,1-2,0l-5.58-5.35a1.34,1.34,0,0,1,0-1.93l.09-.09a1.47,1.47,0,0,1,2,0l5.58,5.35A1.34,1.34,0,0,1,67.57,76Z"/><path class="cls-2" d="M76.05,76l-.08.09a1.48,1.48,0,0,1-2,0l-5.57-5.35a1.32,1.32,0,0,1,0-1.93l.08-.09a1.48,1.48,0,0,1,2,0l5.57,5.35A1.32,1.32,0,0,1,76.05,76Z"/><path class="cls-2" d="M84.56,76l-.09.09a1.47,1.47,0,0,1-2,0l-5.58-5.35a1.34,1.34,0,0,1,0-1.93l.09-.09a1.47,1.47,0,0,1,2,0l5.58,5.35A1.34,1.34,0,0,1,84.56,76Z"/><path class="cls-2" d="M72.63,84.56l.09.08a1.47,1.47,0,0,0,2,0l5.58-5.35a1.34,1.34,0,0,0,0-1.93l-.09-.08a1.45,1.45,0,0,0-2,0l-5.58,5.35A1.32,1.32,0,0,0,72.63,84.56Z"/><path class="cls-2" d="M64.12,84.56l.09.08a1.47,1.47,0,0,0,2,0l5.58-5.35a1.32,1.32,0,0,0,0-1.93l-.08-.08a1.46,1.46,0,0,0-2,0l-5.58,5.35A1.34,1.34,0,0,0,64.12,84.56Z"/><path class="cls-2" d="M55.64,84.56l.08.08a1.48,1.48,0,0,0,2,0l5.58-5.35a1.34,1.34,0,0,0,0-1.93l-.09-.08a1.45,1.45,0,0,0-2,0l-5.58,5.35A1.32,1.32,0,0,0,55.64,84.56Z"/><path class="cls-2" d="M47.13,84.56l.09.08a1.47,1.47,0,0,0,2,0l5.58-5.35a1.32,1.32,0,0,0,0-1.93l-.08-.08a1.46,1.46,0,0,0-2,0l-5.58,5.35A1.34,1.34,0,0,0,47.13,84.56Z"/><path class="cls-2" d="M38.65,84.56l.08.08a1.48,1.48,0,0,0,2,0l5.57-5.35a1.32,1.32,0,0,0,0-1.93l-.08-.08a1.45,1.45,0,0,0-2,0l-5.58,5.35A1.32,1.32,0,0,0,38.65,84.56Z"/><path class="cls-2" d="M30.14,84.56l.09.08a1.47,1.47,0,0,0,2,0l5.58-5.35a1.32,1.32,0,0,0,0-1.93l-.09-.08a1.45,1.45,0,0,0-2,0l-5.58,5.35A1.34,1.34,0,0,0,30.14,84.56Z"/><path class="cls-2" d="M21.66,84.56l.08.08a1.48,1.48,0,0,0,2,0l5.57-5.35a1.32,1.32,0,0,0,0-1.93l-.08-.08a1.45,1.45,0,0,0-2,0l-5.58,5.35A1.32,1.32,0,0,0,21.66,84.56Z"/><path class="cls-2" d="M13.15,84.56l.09.08a1.47,1.47,0,0,0,2,0l5.58-5.35a1.32,1.32,0,0,0,0-1.93l-.09-.08a1.45,1.45,0,0,0-2,0l-5.58,5.35A1.34,1.34,0,0,0,13.15,84.56Z"/><path class="cls-2" d="M4.67,84.56l.08.08a1.48,1.48,0,0,0,2,0l5.57-5.35a1.32,1.32,0,0,0,0-1.93l-.08-.08a1.46,1.46,0,0,0-2,0L4.67,82.63A1.32,1.32,0,0,0,4.67,84.56Z"/><path class="cls-2" d="M3.84,77.36l-.09-.09a1.47,1.47,0,0,0-2,0L0,79v4l3.84-3.68A1.32,1.32,0,0,0,3.84,77.36Z"/><path class="cls-2" d="M81.2,82.63a1.34,1.34,0,0,0,0,1.93l.09.08a1.47,1.47,0,0,0,2,0L85,83V79Z"/><path class="cls-3" d="M45,79.31S36.74,59.11,48.27,36"/><path class="cls-4" d="M17.73,56c3.16,6.23,8.43,3.55,8.43,3.55s-1,5.64,6.13,6.6,13.1-10.8,9.91-27.78C24.38,40.7,14.57,49.76,17.73,56Z"/><path class="cls-5" d="M17.73,56c3.16,6.23,8.43,3.55,8.43,3.55s-1,5.64,6.13,6.6,13.1-10.8,9.91-27.78C24.38,40.7,14.57,49.76,17.73,56Z"/><path class="cls-4" d="M52.12,66.14c7.15-1,6.13-6.6,6.13-6.6s5.27,2.68,8.43-3.55S60,40.7,42.2,38.36C39,55.34,45,67.1,52.12,66.14Z"/><path class="cls-5" d="M52.12,66.14c7.15-1,6.13-6.6,6.13-6.6s5.27,2.68,8.43-3.55S60,40.7,42.2,38.36C39,55.34,45,67.1,52.12,66.14Z"/><path class="cls-4" d="M17.16,21.47c-5.19,4.81-.91,8.8-.91,8.8s-5.91.8-4.65,7.63,14.75,8.61,30.6.46C34.37,22.82,22.36,16.66,17.16,21.47Z"/><path class="cls-5" d="M17.16,21.47c-5.19,4.81-.91,8.8-.91,8.8s-5.91.8-4.65,7.63,14.75,8.61,30.6.46C34.37,22.82,22.36,16.66,17.16,21.47Z"/><path class="cls-4" d="M72.81,37.9c1.26-6.83-4.65-7.63-4.65-7.63s4.28-4-.91-8.8S50,22.82,42.2,38.36C58.06,46.51,71.55,44.72,72.81,37.9Z"/><path class="cls-5" d="M72.81,37.9c1.26-6.83-4.65-7.63-4.65-7.63s4.28-4-.91-8.8S50,22.82,42.2,38.36C58.06,46.51,71.55,44.72,72.81,37.9Z"/><path class="cls-4" d="M51.2,10.29c-6.37-3.25-9,1.88-9,1.88s-2.62-5.13-9-1.88-4,16.12,9,28.07C55.19,26.41,57.58,13.55,51.2,10.29Z"/><path class="cls-5" d="M51.2,10.29c-6.37-3.25-9,1.88-9,1.88s-2.62-5.13-9-1.88-4,16.12,9,28.07C55.19,26.41,57.58,13.55,51.2,10.29Z"/><path class="cls-6" d="M55,42.06a1.4,1.4,0,0,0-1.51.33L50.08,41a7.64,7.64,0,0,0,0-5.33l3.45-1.37a1.36,1.36,0,0,0,1.51.33A1.26,1.26,0,0,0,55.77,33a1.37,1.37,0,0,0-1.76-.7,1.28,1.28,0,0,0-.82,1.26L49.73,34.9a8.18,8.18,0,0,0-3.92-3.76l1.43-3.32A1.34,1.34,0,0,0,48.55,27a1.27,1.27,0,0,0-.73-1.69,1.36,1.36,0,0,0-1.75.7,1.24,1.24,0,0,0,.34,1.45L45,30.81a8.43,8.43,0,0,0-5.55,0L38,27.49A1.24,1.24,0,0,0,38.34,26a1.36,1.36,0,0,0-1.75-.7A1.27,1.27,0,0,0,35.86,27a1.34,1.34,0,0,0,1.31.79l1.43,3.32a8.18,8.18,0,0,0-3.92,3.76l-3.46-1.37a1.28,1.28,0,0,0-.82-1.26,1.37,1.37,0,0,0-1.76.7,1.26,1.26,0,0,0,.73,1.68,1.36,1.36,0,0,0,1.51-.33l3.45,1.37a7.64,7.64,0,0,0,0,5.33l-3.45,1.37a1.4,1.4,0,0,0-1.51-.33,1.27,1.27,0,0,0-.73,1.69,1.37,1.37,0,0,0,1.76.7,1.29,1.29,0,0,0,.82-1.26l3.46-1.38a8.2,8.2,0,0,0,3.92,3.77L37.17,48.9a1.34,1.34,0,0,0-1.31.79,1.26,1.26,0,0,0,.73,1.68,1.35,1.35,0,0,0,1.75-.7A1.25,1.25,0,0,0,38,49.22l1.43-3.31a8.6,8.6,0,0,0,5.55,0l1.43,3.31a1.25,1.25,0,0,0-.34,1.45,1.35,1.35,0,0,0,1.75.7,1.26,1.26,0,0,0,.73-1.68,1.34,1.34,0,0,0-1.31-.79l-1.43-3.32a8.2,8.2,0,0,0,3.92-3.77l3.46,1.38A1.29,1.29,0,0,0,54,44.45a1.37,1.37,0,0,0,1.76-.7A1.27,1.27,0,0,0,55,42.06Z"/><path class="cls-6" d="M53.25,37.07a1.34,1.34,0,0,0-1.26.86H49.08A6.48,6.48,0,0,0,47.39,34l2.06-2A1.4,1.4,0,0,0,51,31.78,1.25,1.25,0,0,0,51,30a1.39,1.39,0,0,0-1.9,0,1.24,1.24,0,0,0-.26,1.46l-2.06,2a7,7,0,0,0-4.1-1.63V29a1.3,1.3,0,0,0,.9-1.21,1.35,1.35,0,0,0-2.69,0,1.3,1.3,0,0,0,.9,1.21v2.79a6.94,6.94,0,0,0-4.1,1.63l-2.06-2A1.24,1.24,0,0,0,35.34,30a1.39,1.39,0,0,0-1.9,0,1.25,1.25,0,0,0,0,1.83A1.4,1.4,0,0,0,35,32L37,34a6.48,6.48,0,0,0-1.69,3.94H32.42a1.34,1.34,0,0,0-1.26-.86,1.29,1.29,0,1,0,0,2.58,1.34,1.34,0,0,0,1.26-.86h2.91A6.45,6.45,0,0,0,37,42.72L35,44.7a1.36,1.36,0,0,0-1.52.24,1.25,1.25,0,0,0,0,1.83,1.39,1.39,0,0,0,1.9,0,1.25,1.25,0,0,0,.26-1.46l2.06-2A7.07,7.07,0,0,0,41.76,45v2.79a1.29,1.29,0,0,0-.9,1.21,1.35,1.35,0,0,0,2.69,0,1.29,1.29,0,0,0-.9-1.21V45a7.07,7.07,0,0,0,4.1-1.63l2.06,2a1.25,1.25,0,0,0,.26,1.46,1.39,1.39,0,0,0,1.9,0,1.25,1.25,0,0,0,0-1.83,1.36,1.36,0,0,0-1.52-.24l-2.06-2a6.45,6.45,0,0,0,1.69-3.93H52a1.34,1.34,0,0,0,1.26.86,1.29,1.29,0,1,0,0-2.58Z"/><ellipse class="cls-7" cx="42.2" cy="38.36" rx="5.37" ry="5.15"/><path class="cls-3" d="M45,79.31S36.74,59.11,48.27,36"/><path class="cls-8" d="M17.73,56c3.16,6.23,8.43,3.55,8.43,3.55s-1,5.64,6.13,6.6,13.1-10.8,9.91-27.78C24.38,40.7,14.57,49.76,17.73,56Z"/><path class="cls-5" d="M17.73,56c3.16,6.23,8.43,3.55,8.43,3.55s-1,5.64,6.13,6.6,13.1-10.8,9.91-27.78C24.38,40.7,14.57,49.76,17.73,56Z"/><path class="cls-8" d="M52.12,66.14c7.15-1,6.13-6.6,6.13-6.6s5.27,2.68,8.43-3.55S60,40.7,42.2,38.36C39,55.34,45,67.1,52.12,66.14Z"/><path class="cls-5" d="M52.12,66.14c7.15-1,6.13-6.6,6.13-6.6s5.27,2.68,8.43-3.55S60,40.7,42.2,38.36C39,55.34,45,67.1,52.12,66.14Z"/><path class="cls-8" d="M17.16,21.47c-5.19,4.81-.91,8.8-.91,8.8s-5.91.8-4.65,7.63,14.75,8.61,30.6.46C34.37,22.82,22.36,16.66,17.16,21.47Z"/><path class="cls-5" d="M17.16,21.47c-5.19,4.81-.91,8.8-.91,8.8s-5.91.8-4.65,7.63,14.75,8.61,30.6.46C34.37,22.82,22.36,16.66,17.16,21.47Z"/><path class="cls-8" d="M72.81,37.9c1.26-6.83-4.65-7.63-4.65-7.63s4.28-4-.91-8.8S50,22.82,42.2,38.36C58.06,46.51,71.55,44.72,72.81,37.9Z"/><path class="cls-5" d="M72.81,37.9c1.26-6.83-4.65-7.63-4.65-7.63s4.28-4-.91-8.8S50,22.82,42.2,38.36C58.06,46.51,71.55,44.72,72.81,37.9Z"/><path class="cls-8" d="M51.2,10.29c-6.37-3.25-9,1.88-9,1.88s-2.62-5.13-9-1.88-4,16.12,9,28.07C55.19,26.41,57.58,13.55,51.2,10.29Z"/><path class="cls-5" d="M51.2,10.29c-6.37-3.25-9,1.88-9,1.88s-2.62-5.13-9-1.88-4,16.12,9,28.07C55.19,26.41,57.58,13.55,51.2,10.29Z"/><path class="cls-6" d="M55,42.06a1.4,1.4,0,0,0-1.51.33L50.08,41a7.64,7.64,0,0,0,0-5.33l3.45-1.37a1.36,1.36,0,0,0,1.51.33A1.26,1.26,0,0,0,55.77,33a1.37,1.37,0,0,0-1.76-.7,1.28,1.28,0,0,0-.82,1.26L49.73,34.9a8.18,8.18,0,0,0-3.92-3.76l1.43-3.32A1.34,1.34,0,0,0,48.55,27a1.27,1.27,0,0,0-.73-1.69,1.36,1.36,0,0,0-1.75.7,1.24,1.24,0,0,0,.34,1.45L45,30.81a8.43,8.43,0,0,0-5.55,0L38,27.49A1.24,1.24,0,0,0,38.34,26a1.36,1.36,0,0,0-1.75-.7A1.27,1.27,0,0,0,35.86,27a1.34,1.34,0,0,0,1.31.79l1.43,3.32a8.18,8.18,0,0,0-3.92,3.76l-3.46-1.37a1.28,1.28,0,0,0-.82-1.26,1.37,1.37,0,0,0-1.76.7,1.26,1.26,0,0,0,.73,1.68,1.36,1.36,0,0,0,1.51-.33l3.45,1.37a7.64,7.64,0,0,0,0,5.33l-3.45,1.37a1.4,1.4,0,0,0-1.51-.33,1.27,1.27,0,0,0-.73,1.69,1.37,1.37,0,0,0,1.76.7,1.29,1.29,0,0,0,.82-1.26l3.46-1.38a8.2,8.2,0,0,0,3.92,3.77L37.17,48.9a1.34,1.34,0,0,0-1.31.79,1.26,1.26,0,0,0,.73,1.68,1.35,1.35,0,0,0,1.75-.7A1.25,1.25,0,0,0,38,49.22l1.43-3.31a8.6,8.6,0,0,0,5.55,0l1.43,3.31a1.25,1.25,0,0,0-.34,1.45,1.35,1.35,0,0,0,1.75.7,1.26,1.26,0,0,0,.73-1.68,1.34,1.34,0,0,0-1.31-.79l-1.43-3.32a8.2,8.2,0,0,0,3.92-3.77l3.46,1.38A1.29,1.29,0,0,0,54,44.45a1.37,1.37,0,0,0,1.76-.7A1.27,1.27,0,0,0,55,42.06Z"/><path class="cls-6" d="M53.25,37.07a1.34,1.34,0,0,0-1.26.86H49.08A6.48,6.48,0,0,0,47.39,34l2.06-2A1.4,1.4,0,0,0,51,31.78,1.25,1.25,0,0,0,51,30a1.39,1.39,0,0,0-1.9,0,1.24,1.24,0,0,0-.26,1.46l-2.06,2a7,7,0,0,0-4.1-1.63V29a1.3,1.3,0,0,0,.9-1.21,1.35,1.35,0,0,0-2.69,0,1.3,1.3,0,0,0,.9,1.21v2.79a6.94,6.94,0,0,0-4.1,1.63l-2.06-2A1.24,1.24,0,0,0,35.34,30a1.39,1.39,0,0,0-1.9,0,1.25,1.25,0,0,0,0,1.83A1.4,1.4,0,0,0,35,32L37,34a6.48,6.48,0,0,0-1.69,3.94H32.42a1.34,1.34,0,0,0-1.26-.86,1.29,1.29,0,1,0,0,2.58,1.34,1.34,0,0,0,1.26-.86h2.91A6.45,6.45,0,0,0,37,42.72L35,44.7a1.36,1.36,0,0,0-1.52.24,1.25,1.25,0,0,0,0,1.83,1.39,1.39,0,0,0,1.9,0,1.25,1.25,0,0,0,.26-1.46l2.06-2A7.07,7.07,0,0,0,41.76,45v2.79a1.29,1.29,0,0,0-.9,1.21,1.35,1.35,0,0,0,2.69,0,1.29,1.29,0,0,0-.9-1.21V45a7.07,7.07,0,0,0,4.1-1.63l2.06,2a1.25,1.25,0,0,0,.26,1.46,1.39,1.39,0,0,0,1.9,0,1.25,1.25,0,0,0,0-1.83,1.36,1.36,0,0,0-1.52-.24l-2.06-2a6.45,6.45,0,0,0,1.69-3.93H52a1.34,1.34,0,0,0,1.26.86,1.29,1.29,0,1,0,0-2.58Z"/><ellipse class="cls-7" cx="42.2" cy="38.36" rx="5.37" ry="5.15"/></svg>