<svg id="Layer_1" data-name="Layer 1" xmlns="http://www.w3.org/2000/svg" viewBox="0 0 85.04 85.04"><defs><style>.cls-1{fill:#88b461;}.cls-2{fill:#72a439;}.cls-3,.cls-5{fill:none;stroke:#36572b;stroke-miterlimit:10;}.cls-3{stroke-width:5px;}.cls-4{fill:#fff;}.cls-5{stroke-width:3px;}.cls-6{fill:#36572b;}</style></defs><title>FLOR</title><rect class="cls-1" width="85.04" height="85.04"/><path class="cls-2" d="M8.09,7.68,8,7.76a1.46,1.46,0,0,1-2,0L.41,2.41A1.34,1.34,0,0,1,.41.48L.5.4a1.47,1.47,0,0,1,2,0L8.09,5.75A1.32,1.32,0,0,1,8.09,7.68Z"/><path class="cls-2" d="M16.6,7.68l-.09.08a1.45,1.45,0,0,1-2,0L8.92,2.41a1.32,1.32,0,0,1,0-1.93L9,.4a1.47,1.47,0,0,1,2,0L16.6,5.75A1.34,1.34,0,0,1,16.6,7.68Z"/><path class="cls-2" d="M25.08,7.68,25,7.76a1.46,1.46,0,0,1-2,0L17.41,2.41a1.32,1.32,0,0,1,0-1.93L17.49.4a1.47,1.47,0,0,1,2,0l5.58,5.35A1.32,1.32,0,0,1,25.08,7.68Z"/><path class="cls-2" d="M33.59,7.68l-.09.08a1.45,1.45,0,0,1-2,0L25.91,2.41a1.32,1.32,0,0,1,0-1.93L26,.4a1.47,1.47,0,0,1,2,0l5.58,5.35A1.34,1.34,0,0,1,33.59,7.68Z"/><path class="cls-2" d="M42.07,7.68,42,7.76a1.46,1.46,0,0,1-2,0L34.4,2.41a1.32,1.32,0,0,1,0-1.93L34.48.4a1.48,1.48,0,0,1,2,0l5.57,5.35A1.32,1.32,0,0,1,42.07,7.68Z"/><path class="cls-2" d="M50.58,7.68l-.09.08a1.45,1.45,0,0,1-2,0L42.9,2.41a1.32,1.32,0,0,1,0-1.93L43,.4a1.47,1.47,0,0,1,2,0l5.58,5.35A1.34,1.34,0,0,1,50.58,7.68Z"/><path class="cls-2" d="M59.06,7.68,59,7.76a1.46,1.46,0,0,1-2,0L51.39,2.41a1.32,1.32,0,0,1,0-1.93L51.47.4a1.48,1.48,0,0,1,2,0l5.57,5.35A1.32,1.32,0,0,1,59.06,7.68Z"/><path class="cls-2" d="M67.57,7.68l-.09.08a1.45,1.45,0,0,1-2,0L59.89,2.41a1.34,1.34,0,0,1,0-1.93L60,.4a1.47,1.47,0,0,1,2,0l5.58,5.35A1.34,1.34,0,0,1,67.57,7.68Z"/><path class="cls-2" d="M76.05,7.68,76,7.76a1.46,1.46,0,0,1-2,0L68.38,2.41a1.32,1.32,0,0,1,0-1.93L68.46.4a1.48,1.48,0,0,1,2,0l5.57,5.35A1.32,1.32,0,0,1,76.05,7.68Z"/><path class="cls-2" d="M84.56,7.68l-.09.08a1.45,1.45,0,0,1-2,0L76.88,2.41a1.34,1.34,0,0,1,0-1.93L77,.4a1.47,1.47,0,0,1,2,0l5.58,5.35A1.34,1.34,0,0,1,84.56,7.68Z"/><path class="cls-2" d="M72.63,16.19l.09.09a1.47,1.47,0,0,0,2,0l5.58-5.35a1.33,1.33,0,0,0,0-1.93l-.09-.09a1.47,1.47,0,0,0-2,0l-5.58,5.35A1.32,1.32,0,0,0,72.63,16.19Z"/><path class="cls-2" d="M64.12,16.19l.09.09a1.47,1.47,0,0,0,2,0l5.58-5.35A1.32,1.32,0,0,0,71.8,9l-.08-.09a1.48,1.48,0,0,0-2,0l-5.58,5.35A1.34,1.34,0,0,0,64.12,16.19Z"/><path class="cls-2" d="M55.64,16.19l.08.09a1.48,1.48,0,0,0,2,0l5.58-5.35a1.33,1.33,0,0,0,0-1.93l-.09-.09a1.47,1.47,0,0,0-2,0l-5.58,5.35A1.32,1.32,0,0,0,55.64,16.19Z"/><path class="cls-2" d="M47.13,16.19l.09.09a1.47,1.47,0,0,0,2,0l5.58-5.35a1.32,1.32,0,0,0,0-1.93l-.08-.09a1.48,1.48,0,0,0-2,0l-5.58,5.35A1.34,1.34,0,0,0,47.13,16.19Z"/><path class="cls-2" d="M38.65,16.19l.08.09a1.48,1.48,0,0,0,2,0l5.57-5.35a1.32,1.32,0,0,0,0-1.93l-.08-.09a1.47,1.47,0,0,0-2,0l-5.58,5.35A1.32,1.32,0,0,0,38.65,16.19Z"/><path class="cls-2" d="M30.14,16.19l.09.09a1.47,1.47,0,0,0,2,0l5.58-5.35a1.32,1.32,0,0,0,0-1.93l-.09-.09a1.47,1.47,0,0,0-2,0l-5.58,5.35A1.34,1.34,0,0,0,30.14,16.19Z"/><path class="cls-2" d="M21.66,16.19l.08.09a1.48,1.48,0,0,0,2,0l5.57-5.35a1.32,1.32,0,0,0,0-1.93l-.08-.09a1.47,1.47,0,0,0-2,0l-5.58,5.35A1.32,1.32,0,0,0,21.66,16.19Z"/><path class="cls-2" d="M13.15,16.19l.09.09a1.47,1.47,0,0,0,2,0l5.58-5.35a1.32,1.32,0,0,0,0-1.93l-.09-.09a1.47,1.47,0,0,0-2,0l-5.58,5.35A1.34,1.34,0,0,0,13.15,16.19Z"/><path class="cls-2" d="M4.67,16.19l.08.09a1.48,1.48,0,0,0,2,0l5.57-5.35a1.32,1.32,0,0,0,0-1.93l-.08-.09a1.48,1.48,0,0,0-2,0L4.67,14.26A1.32,1.32,0,0,0,4.67,16.19Z"/><path class="cls-2" d="M3.84,9l-.09-.09a1.47,1.47,0,0,0-2,0L0,10.58v4l3.84-3.68A1.32,1.32,0,0,0,3.84,9Z"/><path class="cls-2" d="M81.2,14.26a1.34,1.34,0,0,0,0,1.93l.09.09a1.47,1.47,0,0,0,2,0L85,14.61v-4Z"/><path class="cls-2" d="M8.09,25,8,25.05a1.48,1.48,0,0,1-2,0L.41,19.7a1.34,1.34,0,0,1,0-1.93l.09-.09a1.47,1.47,0,0,1,2,0L8.09,23A1.32,1.32,0,0,1,8.09,25Z"/><path class="cls-2" d="M16.6,25l-.09.08a1.47,1.47,0,0,1-2,0L8.92,19.7a1.32,1.32,0,0,1,0-1.93L9,17.68a1.47,1.47,0,0,1,2,0L16.6,23A1.33,1.33,0,0,1,16.6,25Z"/><path class="cls-2" d="M25.08,25l-.08.08a1.48,1.48,0,0,1-2,0L17.41,19.7a1.32,1.32,0,0,1,0-1.93l.08-.09a1.47,1.47,0,0,1,2,0L25.08,23A1.32,1.32,0,0,1,25.08,25Z"/><path class="cls-2" d="M33.59,25l-.09.08a1.47,1.47,0,0,1-2,0L25.91,19.7a1.32,1.32,0,0,1,0-1.93l.09-.09a1.47,1.47,0,0,1,2,0L33.59,23A1.33,1.33,0,0,1,33.59,25Z"/><path class="cls-2" d="M42.07,25l-.08.08a1.48,1.48,0,0,1-2,0L34.4,19.7a1.32,1.32,0,0,1,0-1.93l.08-.09a1.48,1.48,0,0,1,2,0L42.07,23A1.32,1.32,0,0,1,42.07,25Z"/><path class="cls-2" d="M50.58,25l-.09.08a1.47,1.47,0,0,1-2,0L42.9,19.7a1.32,1.32,0,0,1,0-1.93l.09-.09a1.47,1.47,0,0,1,2,0L50.58,23A1.33,1.33,0,0,1,50.58,25Z"/><path class="cls-2" d="M59.06,25l-.08.08a1.48,1.48,0,0,1-2,0L51.39,19.7a1.32,1.32,0,0,1,0-1.93l.08-.09a1.48,1.48,0,0,1,2,0L59.06,23A1.32,1.32,0,0,1,59.06,25Z"/><path class="cls-2" d="M67.57,25l-.09.08a1.47,1.47,0,0,1-2,0L59.89,19.7a1.34,1.34,0,0,1,0-1.93l.09-.09a1.47,1.47,0,0,1,2,0L67.57,23A1.33,1.33,0,0,1,67.57,25Z"/><path class="cls-2" d="M76.05,25l-.08.08a1.48,1.48,0,0,1-2,0L68.38,19.7a1.32,1.32,0,0,1,0-1.93l.08-.09a1.48,1.48,0,0,1,2,0L76.05,23A1.32,1.32,0,0,1,76.05,25Z"/><path class="cls-2" d="M84.56,25l-.09.08a1.47,1.47,0,0,1-2,0L76.88,19.7a1.34,1.34,0,0,1,0-1.93l.09-.09a1.47,1.47,0,0,1,2,0L84.56,23A1.33,1.33,0,0,1,84.56,25Z"/><path class="cls-2" d="M72.63,33.48l.09.08a1.47,1.47,0,0,0,2,0l5.58-5.35a1.34,1.34,0,0,0,0-1.93l-.09-.08a1.47,1.47,0,0,0-2,0l-5.58,5.35A1.32,1.32,0,0,0,72.63,33.48Z"/><path class="cls-2" d="M64.12,33.48l.09.08a1.47,1.47,0,0,0,2,0l5.58-5.35a1.32,1.32,0,0,0,0-1.93l-.08-.08a1.48,1.48,0,0,0-2,0l-5.58,5.35A1.34,1.34,0,0,0,64.12,33.48Z"/><path class="cls-2" d="M55.64,33.48l.08.08a1.48,1.48,0,0,0,2,0l5.58-5.35a1.34,1.34,0,0,0,0-1.93l-.09-.08a1.47,1.47,0,0,0-2,0l-5.58,5.35A1.32,1.32,0,0,0,55.64,33.48Z"/><path class="cls-2" d="M47.13,33.48l.09.08a1.47,1.47,0,0,0,2,0l5.58-5.35a1.32,1.32,0,0,0,0-1.93l-.08-.08a1.48,1.48,0,0,0-2,0l-5.58,5.35A1.34,1.34,0,0,0,47.13,33.48Z"/><path class="cls-2" d="M38.65,33.48l.08.08a1.48,1.48,0,0,0,2,0l5.57-5.35a1.32,1.32,0,0,0,0-1.93l-.08-.08a1.47,1.47,0,0,0-2,0l-5.58,5.35A1.32,1.32,0,0,0,38.65,33.48Z"/><path class="cls-2" d="M30.14,33.48l.09.08a1.47,1.47,0,0,0,2,0l5.58-5.35a1.32,1.32,0,0,0,0-1.93l-.09-.08a1.47,1.47,0,0,0-2,0l-5.58,5.35A1.34,1.34,0,0,0,30.14,33.48Z"/><path class="cls-2" d="M21.66,33.48l.08.08a1.48,1.48,0,0,0,2,0l5.57-5.35a1.32,1.32,0,0,0,0-1.93l-.08-.08a1.47,1.47,0,0,0-2,0l-5.58,5.35A1.32,1.32,0,0,0,21.66,33.48Z"/><path class="cls-2" d="M13.15,33.48l.09.08a1.47,1.47,0,0,0,2,0l5.58-5.35a1.32,1.32,0,0,0,0-1.93l-.09-.08a1.47,1.47,0,0,0-2,0l-5.58,5.35A1.34,1.34,0,0,0,13.15,33.48Z"/><path class="cls-2" d="M4.67,33.48l.08.08a1.48,1.48,0,0,0,2,0l5.57-5.35a1.32,1.32,0,0,0,0-1.93l-.08-.08a1.48,1.48,0,0,0-2,0L4.67,31.55A1.32,1.32,0,0,0,4.67,33.48Z"/><path class="cls-2" d="M3.84,26.28l-.09-.08a1.47,1.47,0,0,0-2,0L0,27.87v4l3.84-3.69A1.32,1.32,0,0,0,3.84,26.28Z"/><path class="cls-2" d="M81.2,31.55a1.34,1.34,0,0,0,0,1.93l.09.08a1.47,1.47,0,0,0,2,0L85,31.9v-4Z"/><path class="cls-2" d="M8.09,42,8,42.08a1.48,1.48,0,0,1-2,0L.41,36.72a1.34,1.34,0,0,1,0-1.93l.09-.08a1.47,1.47,0,0,1,2,0l5.58,5.35A1.32,1.32,0,0,1,8.09,42Z"/><path class="cls-2" d="M16.6,42l-.09.09a1.47,1.47,0,0,1-2,0L8.92,36.72a1.32,1.32,0,0,1,0-1.93L9,34.71a1.47,1.47,0,0,1,2,0l5.58,5.35A1.34,1.34,0,0,1,16.6,42Z"/><path class="cls-2" d="M25.08,42l-.08.09a1.48,1.48,0,0,1-2,0l-5.57-5.36a1.32,1.32,0,0,1,0-1.93l.08-.08a1.47,1.47,0,0,1,2,0l5.58,5.35A1.32,1.32,0,0,1,25.08,42Z"/><path class="cls-2" d="M33.59,42l-.09.09a1.47,1.47,0,0,1-2,0l-5.58-5.36a1.32,1.32,0,0,1,0-1.93l.09-.08a1.47,1.47,0,0,1,2,0l5.58,5.35A1.34,1.34,0,0,1,33.59,42Z"/><path class="cls-2" d="M42.07,42l-.08.09a1.48,1.48,0,0,1-2,0L34.4,36.72a1.32,1.32,0,0,1,0-1.93l.08-.08a1.48,1.48,0,0,1,2,0l5.57,5.35A1.32,1.32,0,0,1,42.07,42Z"/><path class="cls-2" d="M50.58,42l-.09.09a1.47,1.47,0,0,1-2,0L42.9,36.72a1.32,1.32,0,0,1,0-1.93l.09-.08a1.47,1.47,0,0,1,2,0l5.58,5.35A1.34,1.34,0,0,1,50.58,42Z"/><path class="cls-2" d="M59.06,42l-.08.09a1.48,1.48,0,0,1-2,0l-5.57-5.36a1.32,1.32,0,0,1,0-1.93l.08-.08a1.48,1.48,0,0,1,2,0l5.57,5.35A1.32,1.32,0,0,1,59.06,42Z"/><path class="cls-2" d="M67.57,42l-.09.09a1.47,1.47,0,0,1-2,0l-5.58-5.36a1.34,1.34,0,0,1,0-1.93l.09-.08a1.47,1.47,0,0,1,2,0l5.58,5.35A1.34,1.34,0,0,1,67.57,42Z"/><path class="cls-2" d="M76.05,42l-.08.09a1.48,1.48,0,0,1-2,0l-5.57-5.36a1.32,1.32,0,0,1,0-1.93l.08-.08a1.48,1.48,0,0,1,2,0l5.57,5.35A1.32,1.32,0,0,1,76.05,42Z"/><path class="cls-2" d="M84.56,42l-.09.09a1.47,1.47,0,0,1-2,0l-5.58-5.36a1.34,1.34,0,0,1,0-1.93l.09-.08a1.47,1.47,0,0,1,2,0l5.58,5.35A1.34,1.34,0,0,1,84.56,42Z"/><path class="cls-2" d="M72.63,50.5l.09.09a1.47,1.47,0,0,0,2,0l5.58-5.35a1.34,1.34,0,0,0,0-1.93l-.09-.09a1.47,1.47,0,0,0-2,0l-5.58,5.35A1.32,1.32,0,0,0,72.63,50.5Z"/><path class="cls-2" d="M64.12,50.5l.09.09a1.47,1.47,0,0,0,2,0l5.58-5.35a1.32,1.32,0,0,0,0-1.93l-.08-.09a1.48,1.48,0,0,0-2,0l-5.58,5.35A1.33,1.33,0,0,0,64.12,50.5Z"/><path class="cls-2" d="M55.64,50.5l.08.09a1.48,1.48,0,0,0,2,0l5.58-5.35a1.34,1.34,0,0,0,0-1.93l-.09-.09a1.47,1.47,0,0,0-2,0l-5.58,5.35A1.32,1.32,0,0,0,55.64,50.5Z"/><path class="cls-2" d="M47.13,50.5l.09.09a1.47,1.47,0,0,0,2,0l5.58-5.35a1.32,1.32,0,0,0,0-1.93l-.08-.09a1.48,1.48,0,0,0-2,0l-5.58,5.35A1.33,1.33,0,0,0,47.13,50.5Z"/><path class="cls-2" d="M38.65,50.5l.08.09a1.48,1.48,0,0,0,2,0l5.57-5.35a1.32,1.32,0,0,0,0-1.93l-.08-.09a1.47,1.47,0,0,0-2,0l-5.58,5.35A1.32,1.32,0,0,0,38.65,50.5Z"/><path class="cls-2" d="M30.14,50.5l.09.09a1.47,1.47,0,0,0,2,0l5.58-5.35a1.32,1.32,0,0,0,0-1.93l-.09-.09a1.47,1.47,0,0,0-2,0l-5.58,5.35A1.33,1.33,0,0,0,30.14,50.5Z"/><path class="cls-2" d="M21.66,50.5l.08.09a1.48,1.48,0,0,0,2,0l5.57-5.35a1.32,1.32,0,0,0,0-1.93l-.08-.09a1.47,1.47,0,0,0-2,0l-5.58,5.35A1.32,1.32,0,0,0,21.66,50.5Z"/><path class="cls-2" d="M13.15,50.5l.09.09a1.47,1.47,0,0,0,2,0l5.58-5.35a1.32,1.32,0,0,0,0-1.93l-.09-.09a1.47,1.47,0,0,0-2,0l-5.58,5.35A1.33,1.33,0,0,0,13.15,50.5Z"/><path class="cls-2" d="M4.67,50.5l.08.09a1.48,1.48,0,0,0,2,0l5.57-5.35a1.32,1.32,0,0,0,0-1.93l-.08-.09a1.48,1.48,0,0,0-2,0L4.67,48.57A1.32,1.32,0,0,0,4.67,50.5Z"/><path class="cls-2" d="M3.84,43.31l-.09-.09a1.47,1.47,0,0,0-2,0L0,44.89v4l3.84-3.68A1.32,1.32,0,0,0,3.84,43.31Z"/><path class="cls-2" d="M81.2,48.57a1.33,1.33,0,0,0,0,1.93l.09.09a1.47,1.47,0,0,0,2,0L85,48.92v-4Z"/><path class="cls-2" d="M8.09,59,8,59.1a1.48,1.48,0,0,1-2,0L.41,53.75a1.34,1.34,0,0,1,0-1.93l.09-.08a1.45,1.45,0,0,1,2,0l5.58,5.35A1.32,1.32,0,0,1,8.09,59Z"/><path class="cls-2" d="M16.6,59l-.09.08a1.47,1.47,0,0,1-2,0L8.92,53.75a1.32,1.32,0,0,1,0-1.93L9,51.74a1.45,1.45,0,0,1,2,0l5.58,5.35A1.34,1.34,0,0,1,16.6,59Z"/><path class="cls-2" d="M25.08,59,25,59.1a1.48,1.48,0,0,1-2,0l-5.57-5.35a1.32,1.32,0,0,1,0-1.93l.08-.08a1.45,1.45,0,0,1,2,0l5.58,5.35A1.32,1.32,0,0,1,25.08,59Z"/><path class="cls-2" d="M33.59,59l-.09.08a1.47,1.47,0,0,1-2,0l-5.58-5.35a1.32,1.32,0,0,1,0-1.93l.09-.08a1.45,1.45,0,0,1,2,0l5.58,5.35A1.34,1.34,0,0,1,33.59,59Z"/><path class="cls-2" d="M42.07,59,42,59.1a1.48,1.48,0,0,1-2,0L34.4,53.75a1.32,1.32,0,0,1,0-1.93l.08-.08a1.46,1.46,0,0,1,2,0l5.57,5.35A1.32,1.32,0,0,1,42.07,59Z"/><path class="cls-2" d="M50.58,59l-.09.08a1.47,1.47,0,0,1-2,0L42.9,53.75a1.32,1.32,0,0,1,0-1.93l.09-.08a1.45,1.45,0,0,1,2,0l5.58,5.35A1.34,1.34,0,0,1,50.58,59Z"/><path class="cls-2" d="M59.06,59,59,59.1a1.48,1.48,0,0,1-2,0l-5.57-5.35a1.32,1.32,0,0,1,0-1.93l.08-.08a1.46,1.46,0,0,1,2,0l5.57,5.35A1.32,1.32,0,0,1,59.06,59Z"/><path class="cls-2" d="M67.57,59l-.09.08a1.47,1.47,0,0,1-2,0l-5.58-5.35a1.34,1.34,0,0,1,0-1.93l.09-.08a1.45,1.45,0,0,1,2,0l5.58,5.35A1.34,1.34,0,0,1,67.57,59Z"/><path class="cls-2" d="M76.05,59,76,59.1a1.48,1.48,0,0,1-2,0l-5.57-5.35a1.32,1.32,0,0,1,0-1.93l.08-.08a1.46,1.46,0,0,1,2,0l5.57,5.35A1.32,1.32,0,0,1,76.05,59Z"/><path class="cls-2" d="M84.56,59l-.09.08a1.47,1.47,0,0,1-2,0l-5.58-5.35a1.34,1.34,0,0,1,0-1.93l.09-.08a1.45,1.45,0,0,1,2,0l5.58,5.35A1.34,1.34,0,0,1,84.56,59Z"/><path class="cls-2" d="M72.63,67.53l.09.09a1.47,1.47,0,0,0,2,0l5.58-5.36a1.34,1.34,0,0,0,0-1.93l-.09-.08a1.47,1.47,0,0,0-2,0L72.63,65.6A1.32,1.32,0,0,0,72.63,67.53Z"/><path class="cls-2" d="M64.12,67.53l.09.09a1.47,1.47,0,0,0,2,0l5.58-5.36a1.32,1.32,0,0,0,0-1.93l-.08-.08a1.48,1.48,0,0,0-2,0L64.12,65.6A1.34,1.34,0,0,0,64.12,67.53Z"/><path class="cls-2" d="M55.64,67.53l.08.09a1.48,1.48,0,0,0,2,0l5.58-5.36a1.34,1.34,0,0,0,0-1.93l-.09-.08a1.47,1.47,0,0,0-2,0L55.64,65.6A1.32,1.32,0,0,0,55.64,67.53Z"/><path class="cls-2" d="M47.13,67.53l.09.09a1.47,1.47,0,0,0,2,0l5.58-5.36a1.32,1.32,0,0,0,0-1.93l-.08-.08a1.48,1.48,0,0,0-2,0L47.13,65.6A1.34,1.34,0,0,0,47.13,67.53Z"/><path class="cls-2" d="M38.65,67.53l.08.09a1.48,1.48,0,0,0,2,0l5.57-5.36a1.32,1.32,0,0,0,0-1.93l-.08-.08a1.47,1.47,0,0,0-2,0L38.65,65.6A1.32,1.32,0,0,0,38.65,67.53Z"/><path class="cls-2" d="M30.14,67.53l.09.09a1.47,1.47,0,0,0,2,0l5.58-5.36a1.32,1.32,0,0,0,0-1.93l-.09-.08a1.47,1.47,0,0,0-2,0L30.14,65.6A1.34,1.34,0,0,0,30.14,67.53Z"/><path class="cls-2" d="M21.66,67.53l.08.09a1.48,1.48,0,0,0,2,0l5.57-5.36a1.32,1.32,0,0,0,0-1.93l-.08-.08a1.47,1.47,0,0,0-2,0L21.66,65.6A1.32,1.32,0,0,0,21.66,67.53Z"/><path class="cls-2" d="M13.15,67.53l.09.09a1.47,1.47,0,0,0,2,0l5.58-5.36a1.32,1.32,0,0,0,0-1.93l-.09-.08a1.47,1.47,0,0,0-2,0L13.15,65.6A1.34,1.34,0,0,0,13.15,67.53Z"/><path class="cls-2" d="M4.67,67.53l.08.09a1.48,1.48,0,0,0,2,0l5.57-5.36a1.32,1.32,0,0,0,0-1.93l-.08-.08a1.48,1.48,0,0,0-2,0L4.67,65.6A1.32,1.32,0,0,0,4.67,67.53Z"/><path class="cls-2" d="M3.84,60.33l-.09-.08a1.47,1.47,0,0,0-2,0L0,61.92v4l3.84-3.69A1.32,1.32,0,0,0,3.84,60.33Z"/><path class="cls-2" d="M81.2,65.6a1.34,1.34,0,0,0,0,1.93l.09.09a1.47,1.47,0,0,0,2,0L85,66v-4Z"/><path class="cls-2" d="M8.09,76,8,76.13a1.48,1.48,0,0,1-2,0L.41,70.78a1.34,1.34,0,0,1,0-1.93l.09-.09a1.47,1.47,0,0,1,2,0l5.58,5.35A1.32,1.32,0,0,1,8.09,76Z"/><path class="cls-2" d="M16.6,76l-.09.09a1.47,1.47,0,0,1-2,0L8.92,70.78a1.32,1.32,0,0,1,0-1.93L9,68.76a1.47,1.47,0,0,1,2,0l5.58,5.35A1.34,1.34,0,0,1,16.6,76Z"/><path class="cls-2" d="M25.08,76l-.08.09a1.48,1.48,0,0,1-2,0l-5.57-5.35a1.32,1.32,0,0,1,0-1.93l.08-.09a1.47,1.47,0,0,1,2,0l5.58,5.35A1.32,1.32,0,0,1,25.08,76Z"/><path class="cls-2" d="M33.59,76l-.09.09a1.47,1.47,0,0,1-2,0l-5.58-5.35a1.32,1.32,0,0,1,0-1.93l.09-.09a1.47,1.47,0,0,1,2,0l5.58,5.35A1.34,1.34,0,0,1,33.59,76Z"/><path class="cls-2" d="M42.07,76l-.08.09a1.48,1.48,0,0,1-2,0L34.4,70.78a1.32,1.32,0,0,1,0-1.93l.08-.09a1.48,1.48,0,0,1,2,0l5.57,5.35A1.32,1.32,0,0,1,42.07,76Z"/><path class="cls-2" d="M50.58,76l-.09.09a1.47,1.47,0,0,1-2,0L42.9,70.78a1.32,1.32,0,0,1,0-1.93l.09-.09a1.47,1.47,0,0,1,2,0l5.58,5.35A1.34,1.34,0,0,1,50.58,76Z"/><path class="cls-2" d="M59.06,76l-.08.09a1.48,1.48,0,0,1-2,0l-5.57-5.35a1.32,1.32,0,0,1,0-1.93l.08-.09a1.48,1.48,0,0,1,2,0l5.57,5.35A1.32,1.32,0,0,1,59.06,76Z"/><path class="cls-2" d="M67.57,76l-.09.09a1.47,1.47,0,0,1-2,0l-5.58-5.35a1.34,1.34,0,0,1,0-1.93l.09-.09a1.47,1.47,0,0,1,2,0l5.58,5.35A1.34,1.34,0,0,1,67.57,76Z"/><path class="cls-2" d="M76.05,76l-.08.09a1.48,1.48,0,0,1-2,0l-5.57-5.35a1.32,1.32,0,0,1,0-1.93l.08-.09a1.48,1.48,0,0,1,2,0l5.57,5.35A1.32,1.32,0,0,1,76.05,76Z"/><path class="cls-2" d="M84.56,76l-.09.09a1.47,1.47,0,0,1-2,0l-5.58-5.35a1.34,1.34,0,0,1,0-1.93l.09-.09a1.47,1.47,0,0,1,2,0l5.58,5.35A1.34,1.34,0,0,1,84.56,76Z"/><path class="cls-2" d="M72.63,84.56l.09.08a1.47,1.47,0,0,0,2,0l5.58-5.35a1.34,1.34,0,0,0,0-1.93l-.09-.08a1.45,1.45,0,0,0-2,0l-5.58,5.35A1.32,1.32,0,0,0,72.63,84.56Z"/><path class="cls-2" d="M64.12,84.56l.09.08a1.47,1.47,0,0,0,2,0l5.58-5.35a1.32,1.32,0,0,0,0-1.93l-.08-.08a1.46,1.46,0,0,0-2,0l-5.58,5.35A1.34,1.34,0,0,0,64.12,84.56Z"/><path class="cls-2" d="M55.64,84.56l.08.08a1.48,1.48,0,0,0,2,0l5.58-5.35a1.34,1.34,0,0,0,0-1.93l-.09-.08a1.45,1.45,0,0,0-2,0l-5.58,5.35A1.32,1.32,0,0,0,55.64,84.56Z"/><path class="cls-2" d="M47.13,84.56l.09.08a1.47,1.47,0,0,0,2,0l5.58-5.35a1.32,1.32,0,0,0,0-1.93l-.08-.08a1.46,1.46,0,0,0-2,0l-5.58,5.35A1.34,1.34,0,0,0,47.13,84.56Z"/><path class="cls-2" d="M38.65,84.56l.08.08a1.48,1.48,0,0,0,2,0l5.57-5.35a1.32,1.32,0,0,0,0-1.93l-.08-.08a1.45,1.45,0,0,0-2,0l-5.58,5.35A1.32,1.32,0,0,0,38.65,84.56Z"/><path class="cls-2" d="M30.14,84.56l.09.08a1.47,1.47,0,0,0,2,0l5.58-5.35a1.32,1.32,0,0,0,0-1.93l-.09-.08a1.45,1.45,0,0,0-2,0l-5.58,5.35A1.34,1.34,0,0,0,30.14,84.56Z"/><path class="cls-2" d="M21.66,84.56l.08.08a1.48,1.48,0,0,0,2,0l5.57-5.35a1.32,1.32,0,0,0,0-1.93l-.08-.08a1.45,1.45,0,0,0-2,0l-5.58,5.35A1.32,1.32,0,0,0,21.66,84.56Z"/><path class="cls-2" d="M13.15,84.56l.09.08a1.47,1.47,0,0,0,2,0l5.58-5.35a1.32,1.32,0,0,0,0-1.93l-.09-.08a1.45,1.45,0,0,0-2,0l-5.58,5.35A1.34,1.34,0,0,0,13.15,84.56Z"/><path class="cls-2" d="M4.67,84.56l.08.08a1.48,1.48,0,0,0,2,0l5.57-5.35a1.32,1.32,0,0,0,0-1.93l-.08-.08a1.46,1.46,0,0,0-2,0L4.67,82.63A1.32,1.32,0,0,0,4.67,84.56Z"/><path class="cls-2" d="M3.84,77.36l-.09-.09a1.47,1.47,0,0,0-2,0L0,79v4l3.84-3.68A1.32,1.32,0,0,0,3.84,77.36Z"/><path class="cls-2" d="M81.2,82.63a1.34,1.34,0,0,0,0,1.93l.09.08a1.47,1.47,0,0,0,2,0L85,83V79Z"/><path class="cls-3" d="M44.54,80.64s-8.23-20.19,3.3-43.27"/><path class="cls-4" d="M25.54,9.48A34.44,34.44,0,0,0,25.83,34,36.41,36.41,0,0,0,42.06,53a34.51,34.51,0,0,0-.29-24.55A36.41,36.41,0,0,0,25.54,9.48Z"/><path class="cls-5" d="M25.54,9.48A34.44,34.44,0,0,0,25.83,34,36.41,36.41,0,0,0,42.06,53a34.51,34.51,0,0,0-.29-24.55A36.41,36.41,0,0,0,25.54,9.48Z"/><path class="cls-4" d="M58.57,9.48A34.47,34.47,0,0,1,58.29,34,36.46,36.46,0,0,1,42.06,53a34.47,34.47,0,0,1,.28-24.55A36.46,36.46,0,0,1,58.57,9.48Z"/><path class="cls-5" d="M58.57,9.48A34.47,34.47,0,0,1,58.29,34,36.46,36.46,0,0,1,42.06,53a34.47,34.47,0,0,1,.28-24.55A36.46,36.46,0,0,1,58.57,9.48Z"/><path class="cls-4" d="M11,17.53s-.69,11.88,9,23A37.84,37.84,0,0,0,42.06,53s.68-11.88-9-23A37.85,37.85,0,0,0,11,17.53Z"/><path class="cls-5" d="M11,17.53s-.69,11.88,9,23A37.84,37.84,0,0,0,42.06,53s.68-11.88-9-23A37.85,37.85,0,0,0,11,17.53Z"/><path class="cls-4" d="M73.1,17.53s.68,11.88-9,23A37.87,37.87,0,0,1,42.06,53s-.69-11.88,9-23A37.86,37.86,0,0,1,73.1,17.53Z"/><path class="cls-5" d="M73.1,17.53s.68,11.88-9,23A37.87,37.87,0,0,1,42.06,53s-.69-11.88,9-23A37.86,37.86,0,0,1,73.1,17.53Z"/><path class="cls-4" d="M42.06,6.69a35,35,0,0,0-8.49,23.16A35.06,35.06,0,0,0,42.06,53a35.08,35.08,0,0,0,8.48-23.17A35.07,35.07,0,0,0,42.06,6.69Z"/><path class="cls-5" d="M42.06,6.69a35,35,0,0,0-8.49,23.16A35.06,35.06,0,0,0,42.06,53a35.08,35.08,0,0,0,8.48-23.17A35.07,35.07,0,0,0,42.06,6.69Z"/><path class="cls-6" d="M55.05,44.44c-.66.2-1.34.44-2,.72h0a9.33,9.33,0,0,0-.06-1.52c-.21-1.77-3.59-2.56-5.51-1.29-.51.34-1,.72-1.56,1.14A12.55,12.55,0,0,0,45,42.08c-1.14-1.63-4.73-1.63-5.87,0a12.55,12.55,0,0,0-.86,1.41c-.52-.42-1-.8-1.55-1.14-1.93-1.27-5.3-.48-5.52,1.29a9.33,9.33,0,0,0-.06,1.52h0c-.7-.28-1.39-.52-2-.72-2.49-.77-5.24.71-4.51,2.43a14.2,14.2,0,0,0,4.55,5.56c.68.52,6.17,5,13,5S54.32,53,55,52.43a14.2,14.2,0,0,0,4.55-5.56C60.28,45.15,57.53,43.67,55.05,44.44Z"/></svg>