<svg id="Layer_1" data-name="Layer 1" xmlns="http://www.w3.org/2000/svg" viewBox="0 0 35 35"><defs><style>.cls-1{fill:#f8f8f8;}</style></defs><title>ICONOS</title><path class="cls-1" d="M17.5,0A17.5,17.5,0,1,0,35,17.5h0A17.5,17.5,0,0,0,17.5,0ZM14,29.71v-7a1,1,0,0,1,1-.95h4.28a1,1,0,0,1,.95.95v6.93ZM27.3,25.37a11.91,11.91,0,0,1-.89,1V17.28L18,12.62a.76.76,0,0,0-.58-.2.92.92,0,0,0-.61.2L8.34,17.28v8.78a12.56,12.56,0,1,1,19-.69Z"/><path class="cls-1" d="M24.8,8.9a.45.45,0,0,0-.48-.47h-1.9a.48.48,0,0,0-.48.47v2.43L17.85,9a.86.86,0,0,0-1,0L7.05,14.61A1,1,0,0,0,6.72,16,1,1,0,0,0,8,16.28l8.9-5.14a1.13,1.13,0,0,1,1,0l8.9,5.14A1,1,0,0,0,28,16a1,1,0,0,0-.33-1.34L24.8,13Z"/></svg>