<svg id="Layer_1" data-name="Layer 1" xmlns="http://www.w3.org/2000/svg" viewBox="0 0 35 35"><defs><style>.cls-1{fill:#f8f8f8;}</style></defs><title>ICONOS</title><path class="cls-1" d="M5.44,29.56A17.07,17.07,0,0,1,17.5.43a2.72,2.72,0,0,1,2.72,2.72h0A2.72,2.72,0,0,1,17.5,5.87h0A11.63,11.63,0,1,0,29.12,17.5h0a2.72,2.72,0,0,1,5.44,0A17.06,17.06,0,0,1,5.43,29.56Z"/><path class="cls-1" d="M28.89.34,14.23,15a4.93,4.93,0,0,0-.42.51,3.76,3.76,0,0,1,3.08,1.07L18,17.7a3.78,3.78,0,0,1,.91,3.82A4.11,4.11,0,0,0,20,20.77L34.66,6.11a1.16,1.16,0,0,0,0-1.64L30.53.34A1.16,1.16,0,0,0,28.89.34Zm-6.76,16.1a.3.3,0,0,1,0,.41l-2,2a.29.29,0,0,1-.42,0h0a.3.3,0,0,1,0-.41l2-2a.28.28,0,0,1,.41,0Zm11-11a.29.29,0,0,1,0,.42l-10,10a.3.3,0,0,1-.41,0h0a.28.28,0,0,1,0-.41l10-10a.3.3,0,0,1,.41,0Z"/><path class="cls-1" d="M17.61,18.11,16.48,17a3.2,3.2,0,0,0-3-.83,4.78,4.78,0,0,0-.25.69h0v0c0,.12-.06.24-.08.36l-1,4.66-.81.82a.74.74,0,0,0,0,1,.75.75,0,0,0,1,0l.82-.82,4.62-1a3.41,3.41,0,0,0,.46-.1A3.19,3.19,0,0,0,17.61,18.11Z"/></svg>