<svg id="Layer_1" data-name="Layer 1" xmlns="http://www.w3.org/2000/svg" viewBox="0 0 141.73 141.73"><defs><style>.cls-1,.cls-8{fill:#fff;}.cls-1,.cls-6{stroke:#757474;}.cls-1,.cls-6,.cls-7,.cls-8{stroke-miterlimit:10;}.cls-2{fill:#d3d3d3;}.cls-3{fill:#5e77b2;}.cls-4{fill:#757474;}.cls-5{fill:#e2e2e2;}.cls-6,.cls-7{fill:none;}.cls-7,.cls-8{stroke:#717070;}.cls-9{fill:#717070;}</style></defs><title>personaje</title><path class="cls-1" d="M123.91,57.61a47.85,47.85,0,0,0-94.68,0c10.86,7.07,28,11.65,47.34,11.65S113.05,64.68,123.91,57.61Z"/><circle class="cls-2" cx="61.36" cy="52.97" r="10.47"/><path class="cls-2" d="M118.71,41.82c-.62-1.15-1.29-2.26-2-3.35-8.13,8-23.5,13-40.22,13s-31.9-5-40.07-12.89c-.71,1.09-1.37,2.21-2,3.36,9,8.18,25,13.32,42.06,13.32S109.7,50.08,118.71,41.82Z"/><circle class="cls-3" cx="61.36" cy="52.97" r="8.43"/><circle class="cls-2" cx="90.72" cy="52.97" r="10.47"/><circle class="cls-3" cx="90.72" cy="52.97" r="8.43"/><path class="cls-1" d="M28.78,62c0,.83-.06,1.67-.06,2.51a47.85,47.85,0,0,0,95.7,0c0-.84,0-1.68-.07-2.51C112.81,69,95.83,73.26,76.57,73.26S40.33,69,28.78,62Z"/><path class="cls-4" d="M76.57,69.26c-19.3,0-36.48-4.58-47.34-11.65-.22,1.45-.37,2.93-.45,4.43C40.33,69,57.31,73.26,76.57,73.26S112.81,69,124.35,62a42.87,42.87,0,0,0-.44-4.43C113.05,64.68,95.87,69.26,76.57,69.26Z"/><ellipse class="cls-5" cx="76.04" cy="125.65" rx="42.64" ry="2.41"/><path class="cls-6" d="M123.91,57.61a47.85,47.85,0,0,0-94.68,0c10.86,7.07,28,11.65,47.34,11.65S113.05,64.68,123.91,57.61Z"/><line class="cls-7" x1="68.81" y1="68.77" x2="68.81" y2="68.77"/><path class="cls-8" d="M75.51,63.7a9.32,9.32,0,0,0-5.58,16.78c-1.3,2.73-3.87,6.15-8.87,9.91-5.92,4.45-17.79,6.24-26.46,4-3.28-.85-7.54-2.65-9.2-6.37-2.71-6.11,1.09-11.5,4.12-14.56-.25-1.69-.52-4.39-.74-8.65l-.22.12A32.48,32.48,0,0,0,21.43,72c-4.42,6.16-5.3,12.69-2.55,18.88,2.22,5,7,8.59,13.92,10.38a40.63,40.63,0,0,0,10.08,1.22c8.42,0,17-2.32,22.47-6.41,6.63-5,10-9.84,11.56-13.87a9.32,9.32,0,0,0-1.4-18.53Z"/><line class="cls-7" x1="74.48" y1="77.09" x2="78.35" y2="64.14"/><circle class="cls-9" cx="74.51" cy="76.99" r="2.03"/><path class="cls-7" d="M69.22,81.82s.65,3,6.35,3.21"/><path class="cls-7" d="M66.9,85.26s.19,3,5.78,4.14"/><path class="cls-7" d="M63.76,88.34s-.24,3,5.13,4.93"/><path class="cls-7" d="M60.3,91.13s-.24,3,5.13,4.93"/><path class="cls-7" d="M56.71,92.71s-1,2.86,3.74,6.05"/><path class="cls-7" d="M52.61,94.3s-1,2.86,3.75,6"/><path class="cls-7" d="M48.93,94.86s-1.6,2.56,2.28,6.74"/><path class="cls-7" d="M45.09,95.23s-2.13,2.15.76,7.07"/><path class="cls-7" d="M41,95.21s-2.34,1.92,0,7.11"/><path class="cls-7" d="M36.54,95s-2.54,1.64-.8,7.07"/><path class="cls-7" d="M32.74,93.91s-2.77,1.21-1.92,6.85"/><path class="cls-7" d="M29.15,92.32s-2.93.74-3,6.44"/><path class="cls-7" d="M26.11,89.76s-3,.19-4.15,5.78"/><path class="cls-7" d="M24.48,86.12s-3-.59-5.5,4.52"/><path class="cls-7" d="M24.22,82.19s-2.55-1.62-6.76,2.23"/><path class="cls-7" d="M25.65,78.1s-1.62-2.55-7.07-.85"/><path class="cls-7" d="M28.4,74.55s-.82-2.91-6.52-2.84"/></svg>