<svg id="Layer_1" data-name="Layer 1" xmlns="http://www.w3.org/2000/svg" viewBox="0 0 141.73 141.73"><defs><style>.cls-1,.cls-3{fill:#fff;}.cls-1,.cls-9{stroke:#757474;}.cls-1,.cls-2,.cls-3,.cls-9{stroke-miterlimit:10;}.cls-2,.cls-9{fill:none;}.cls-2,.cls-3{stroke:#717070;}.cls-4{fill:#717070;}.cls-5{fill:#757474;}.cls-6{fill:#d3d3d3;}.cls-7{fill:#5e77b2;}.cls-8{fill:#e2e2e2;}</style></defs><title>personaje</title><path class="cls-1" d="M107.34,59.69a47.85,47.85,0,0,0-94.69,0c10.86,7.08,28,11.65,47.34,11.65S96.47,66.77,107.34,59.69Z"/><line class="cls-2" x1="101.02" y1="31.36" x2="101.02" y2="31.36"/><path class="cls-3" d="M97.48,23.73a9.32,9.32,0,0,0,15.23,9c2.39,1.85,5.2,5.09,7.82,10.76,3.1,6.73,2.35,18.71-1.68,26.71-1.52,3-4.18,6.82-8.16,7.65-6.54,1.37-11-3.49-13.36-7.09-1.71-.12-4.41-.41-8.62-1.1a2.25,2.25,0,0,0,.08.24,32,32,0,0,0,5.44,8.47c5.1,5.62,11.29,7.85,17.92,6.47,5.36-1.12,9.88-5.07,13.08-11.43a40.46,40.46,0,0,0,3.31-9.6c1.78-8.22,1.33-17.12-1.53-23.31-3.47-7.53-7.52-11.8-11.12-14.22a9.32,9.32,0,0,0-18.41-2.54Z"/><line class="cls-2" x1="110.35" y1="27.56" x2="98.5" y2="21.05"/><circle class="cls-4" cx="110.26" cy="27.51" r="2.03"/><path class="cls-2" d="M113.86,33.7s3,0,4.48-5.53"/><path class="cls-2" d="M116.74,36.7s3,.44,5.27-4.78"/><path class="cls-2" d="M119.09,40.42s2.9.86,5.9-4"/><path class="cls-2" d="M121.09,44.38s2.89.87,5.9-4"/><path class="cls-2" d="M121.88,48.23s2.59,1.56,6.7-2.38"/><path class="cls-2" d="M122.57,52.56s2.59,1.57,6.71-2.38"/><path class="cls-2" d="M122.34,56.28s2.17,2.11,7.07-.8"/><path class="cls-2" d="M121.89,60.12s1.66,2.53,7.08.74"/><path class="cls-2" d="M121,64.12s1.39,2.69,7,1.48"/><path class="cls-2" d="M119.86,68.43s1.07,2.83,6.75,2.27"/><path class="cls-2" d="M118,71.91s.6,3,6.29,3.32"/><path class="cls-2" d="M115.7,75.08s.09,3,5.65,4.33"/><path class="cls-2" d="M112.55,77.52s-.45,3,4.78,5.27"/><path class="cls-2" d="M108.65,78.34s-1.21,2.78,3.25,6.33"/><path class="cls-2" d="M104.75,77.77s-2.12,2.15.75,7.08"/><path class="cls-2" d="M101.06,75.51s-2.84,1-2.33,6.73"/><path class="cls-2" d="M98.16,72.07s-3,.19-4.15,5.78"/><path class="cls-1" d="M12.21,64.12c-.05.84-.07,1.67-.07,2.52a47.85,47.85,0,0,0,95.7,0c0-.85,0-1.68-.06-2.52C96.23,71,79.25,75.34,60,75.34S23.75,71,12.21,64.12Z"/><path class="cls-5" d="M60,71.34c-19.3,0-36.48-4.57-47.34-11.65-.21,1.46-.37,2.94-.44,4.43C23.75,71,40.73,75.34,60,75.34S96.23,71,107.78,64.12c-.08-1.49-.23-3-.44-4.43C96.47,66.77,79.29,71.34,60,71.34Z"/><circle class="cls-6" cx="40.78" cy="52.94" r="8.92"/><circle class="cls-6" cx="74.87" cy="54.15" r="8.92"/><path class="cls-6" d="M102.09,43.91c-.62-1.15-1.28-2.27-2-3.35-8.14,8-23.5,13-40.22,13S28,48.57,19.8,40.68c-.7,1.09-1.37,2.21-2,3.36,9,8.18,25,13.32,42.06,13.32S93.09,52.17,102.09,43.91Z"/><circle class="cls-7" cx="40.78" cy="52.94" r="7.19"/><circle class="cls-7" cx="74.87" cy="54.15" r="7.33"/><ellipse class="cls-8" cx="59.46" cy="127.74" rx="42.64" ry="2.41"/><path class="cls-9" d="M107.34,59.69a47.85,47.85,0,0,0-94.69,0c10.86,7.08,28,11.65,47.34,11.65S96.47,66.77,107.34,59.69Z"/></svg>