<svg id="Layer_1" data-name="Layer 1" xmlns="http://www.w3.org/2000/svg" viewBox="0 0 141.73 141.73"><defs><style>.cls-1,.cls-3{fill:#fff;}.cls-1,.cls-8{stroke:#757474;}.cls-1,.cls-2,.cls-3,.cls-8{stroke-miterlimit:10;}.cls-2,.cls-8{fill:none;}.cls-2,.cls-3{stroke:#717070;}.cls-4{fill:#717070;}.cls-5{fill:#757474;}.cls-6{fill:#d3d3d3;}.cls-7{fill:#e2e2e2;}.cls-9{fill:#5e77b2;}</style></defs><title>personaje</title><path class="cls-1" d="M100.91,61.58a30.09,30.09,0,0,0-59.54,0C48.2,66,59,68.9,71.14,68.9S94.08,66,100.91,61.58Z"/><line class="cls-2" x1="118.85" y1="56.45" x2="118.85" y2="56.45"/><path class="cls-3" d="M121.28,51.76a5.86,5.86,0,0,0,1.37,11,17.46,17.46,0,0,1-2.36,8c-2.15,4.13-8.41,8.35-13.94,9.42-2.09.4-5,.54-6.94-1.13-3.19-2.73-2.49-6.82-1.6-9.37-.6-.9-1.49-2.36-2.76-4.72,0,0-.07.09-.09.13a20.07,20.07,0,0,0-2.13,6c-.84,4.69.42,8.63,3.66,11.4,2.61,2.24,6.32,3,10.71,2.13a25.39,25.39,0,0,0,6-2c4.78-2.27,9-5.91,11-9.71,2.42-4.62,3-8.28,2.82-11a5.86,5.86,0,0,0-5.81-10.14Z"/><line class="cls-2" x1="124.32" y1="59.64" x2="123.01" y2="51.24"/><circle class="cls-4" cx="124.31" cy="59.58" r="1.28"/><path class="cls-2" d="M122.61,63.75s1.17,1.5,4.47.1"/><path class="cls-2" d="M122.22,66.33s.93,1.66,4.4.79"/><path class="cls-2" d="M121.27,68.93s.68,1.78,4.25,1.41"/><path class="cls-2" d="M120.06,71.44s.68,1.78,4.25,1.41"/><path class="cls-2" d="M118.45,73.32s.21,1.89,3.76,2.42"/><path class="cls-2" d="M116.56,75.32s.21,1.89,3.76,2.43"/><path class="cls-2" d="M114.62,76.64s-.22,1.88,3.11,3.21"/><path class="cls-2" d="M112.53,77.89s-.62,1.79,2.35,3.81"/><path class="cls-2" d="M110.2,79s-.8,1.73,1.94,4"/><path class="cls-2" d="M107.62,80.07s-1,1.61,1.45,4.23"/><path class="cls-2" d="M105.17,80.48s-1.25,1.43.76,4.41"/><path class="cls-2" d="M102.7,80.55s-1.47,1.21,0,4.47"/><path class="cls-2" d="M100.28,79.91s-1.66.93-.79,4.41"/><path class="cls-2" d="M98.37,78.29s-1.84.46-1.9,4"/><path class="cls-2" d="M97.16,76.13s-1.89-.23-3.23,3.09"/><path class="cls-2" d="M96.87,73.42s-1.61-1-4.24,1.43"/><path class="cls-2" d="M97.47,70.66s-1.25-1.43-4.47.15"/><line class="cls-2" x1="22.89" y1="56.45" x2="22.89" y2="56.45"/><path class="cls-3" d="M20.45,51.76a5.86,5.86,0,0,1-1.37,11,17.59,17.59,0,0,0,2.36,8c2.15,4.13,8.41,8.35,13.94,9.42,2.1.4,5,.54,6.94-1.13,3.2-2.73,2.5-6.82,1.6-9.37.6-.9,1.49-2.36,2.76-4.72a1.47,1.47,0,0,0,.1.13,20.21,20.21,0,0,1,2.12,6c.84,4.69-.42,8.63-3.66,11.4-2.61,2.24-6.31,3-10.71,2.13a25.39,25.39,0,0,1-6.05-2c-4.78-2.27-9-5.91-11-9.71-2.42-4.62-3-8.28-2.81-11a5.86,5.86,0,0,1,5.8-10.14Z"/><line class="cls-2" x1="17.42" y1="59.64" x2="18.72" y2="51.24"/><circle class="cls-4" cx="17.43" cy="59.58" r="1.28"/><path class="cls-2" d="M19.13,63.75s-1.17,1.5-4.48.1"/><path class="cls-2" d="M19.51,66.33s-.92,1.66-4.4.79"/><path class="cls-2" d="M20.46,68.93s-.68,1.78-4.25,1.41"/><path class="cls-2" d="M21.67,71.44s-.68,1.78-4.25,1.41"/><path class="cls-2" d="M23.28,73.32s-.21,1.89-3.76,2.42"/><path class="cls-2" d="M25.18,75.32s-.22,1.89-3.77,2.43"/><path class="cls-2" d="M27.12,76.64s.21,1.88-3.12,3.21"/><path class="cls-2" d="M29.2,77.89s.62,1.79-2.35,3.81"/><path class="cls-2" d="M31.53,79s.81,1.73-1.94,4"/><path class="cls-2" d="M34.12,80.07s1,1.61-1.46,4.23"/><path class="cls-2" d="M36.56,80.48s1.25,1.43-.76,4.41"/><path class="cls-2" d="M39,80.55S40.5,81.76,39,85"/><path class="cls-2" d="M41.45,79.91s1.66.93.79,4.41"/><path class="cls-2" d="M43.36,78.29s1.84.46,1.9,4"/><path class="cls-2" d="M44.57,76.13s1.89-.23,3.24,3.09"/><path class="cls-2" d="M44.86,73.42s1.62-1,4.25,1.43"/><path class="cls-2" d="M44.26,70.66s1.26-1.43,4.48.15"/><path class="cls-1" d="M41.09,64.36c0,.53,0,1,0,1.58a30.09,30.09,0,0,0,60.18,0c0-.53,0-1,0-1.58-7.26,4.35-17.94,7.06-30,7.06S48.35,68.71,41.09,64.36Z"/><path class="cls-5" d="M71.14,68.9C59,68.9,48.2,66,41.37,61.58c-.13.91-.23,1.84-.28,2.78,7.26,4.35,17.94,7.06,30.05,7.06s22.79-2.71,30.05-7.06c0-.94-.15-1.87-.28-2.78C94.08,66,83.28,68.9,71.14,68.9Z"/><path class="cls-6" d="M97.62,51.65c-.39-.72-.81-1.42-1.26-2.11-5.12,5-14.78,8.19-25.29,8.19S51,54.58,45.87,49.62c-.44.69-.86,1.39-1.25,2.12,5.68,5.14,15.71,8.37,26.45,8.37S92,56.85,97.62,51.65Z"/><ellipse class="cls-7" cx="70.8" cy="104.36" rx="26.81" ry="1.52"/><path class="cls-8" d="M100.91,61.58a30.09,30.09,0,0,0-59.54,0C48.2,66,59,68.9,71.14,68.9S94.08,66,100.91,61.58Z"/><circle class="cls-6" cx="83.18" cy="58" r="7.37"/><path class="cls-9" d="M83.08,56.94a20.48,20.48,0,0,1-5.84-.12,5.86,5.86,0,0,0-.09,1.78,6.19,6.19,0,0,0,.57,2,28.11,28.11,0,0,0,5.73,0,28.46,28.46,0,0,0,5.6-1.14,6,6,0,0,0-.28-3.82A20.41,20.41,0,0,1,83.08,56.94Z"/><circle class="cls-6" cx="59.05" cy="58" r="7.37"/><path class="cls-9" d="M59.16,56.94A20.51,20.51,0,0,0,65,56.82a6.2,6.2,0,0,1,.08,1.78,6,6,0,0,1-.57,2,28,28,0,0,1-5.72,0,28.56,28.56,0,0,1-5.61-1.14A6,6,0,0,1,53,57.39a6.2,6.2,0,0,1,.44-1.73A20.41,20.41,0,0,0,59.16,56.94Z"/></svg>