<svg id="Layer_1" data-name="Layer 1" xmlns="http://www.w3.org/2000/svg" viewBox="0 0 141.73 141.73"><defs><style>.cls-1,.cls-3{fill:#fff;}.cls-1,.cls-8{stroke:#757474;}.cls-1,.cls-2,.cls-3,.cls-8{stroke-miterlimit:10;}.cls-2,.cls-8{fill:none;}.cls-2,.cls-3{stroke:#717070;}.cls-4{fill:#717070;}.cls-5{fill:#757474;}.cls-6{fill:#d3d3d3;}.cls-7{fill:#e2e2e2;}.cls-9{fill:#5e77b2;}</style></defs><title>personaje</title><path class="cls-1" d="M113.14,59a42,42,0,0,0-83.07,0c9.54,6.2,24.6,10.22,41.54,10.22S103.61,65.17,113.14,59Z"/><line class="cls-2" x1="108.99" y1="34.11" x2="108.99" y2="34.11"/><path class="cls-3" d="M105.88,27.42a8.17,8.17,0,0,0,13.36,7.89c2.1,1.62,4.56,4.46,6.86,9.44,2.73,5.9,2.07,16.41-1.47,23.43-1.34,2.65-3.66,6-7.16,6.7-5.73,1.2-9.66-3-11.72-6.22-1.5-.1-3.86-.36-7.56-1,0,.07,0,.14.07.21A27.8,27.8,0,0,0,103,75.34c4.46,4.93,9.9,6.89,15.71,5.68,4.7-1,8.67-4.45,11.48-10a35.47,35.47,0,0,0,2.9-8.42c1.56-7.22,1.16-15-1.34-20.45-3-6.6-6.6-10.35-9.76-12.47a8.17,8.17,0,0,0-16.15-2.23Z"/><line class="cls-2" x1="117.17" y1="30.78" x2="106.78" y2="25.07"/><circle class="cls-4" cx="117.1" cy="30.74" r="1.78"/><path class="cls-2" d="M120.26,36.17s2.65,0,3.92-4.86"/><path class="cls-2" d="M122.78,38.8s2.62.39,4.62-4.2"/><path class="cls-2" d="M124.84,42.06s2.55.76,5.18-3.5"/><path class="cls-2" d="M126.59,45.54s2.54.76,5.18-3.5"/><path class="cls-2" d="M127.29,48.91s2.27,1.37,5.88-2.09"/><path class="cls-2" d="M127.89,52.71s2.27,1.37,5.89-2.09"/><path class="cls-2" d="M127.69,56s1.9,1.85,6.2-.7"/><path class="cls-2" d="M127.3,59.34s1.45,2.22,6.21.65"/><path class="cls-2" d="M126.52,62.85s1.22,2.36,6.11,1.3"/><path class="cls-2" d="M125.52,66.63s.93,2.48,5.91,2"/><path class="cls-2" d="M123.88,69.68s.53,2.6,5.53,2.91"/><path class="cls-2" d="M121.86,72.47s.09,2.65,5,3.79"/><path class="cls-2" d="M119.1,74.6s-.39,2.63,4.19,4.63"/><path class="cls-2" d="M115.68,75.33s-1.06,2.43,2.86,5.55"/><path class="cls-2" d="M112.26,74.83s-1.86,1.88.66,6.2"/><path class="cls-2" d="M109,72.84s-2.49.92-2,5.9"/><path class="cls-2" d="M106.49,69.83s-2.65.16-3.65,5.07"/><line class="cls-2" x1="32.74" y1="34.11" x2="32.74" y2="34.11"/><path class="cls-3" d="M35.85,27.42a8.17,8.17,0,0,1-13.36,7.89c-2.1,1.62-4.56,4.46-6.86,9.44-2.72,5.9-2.06,16.41,1.47,23.43,1.34,2.65,3.67,6,7.16,6.7,5.74,1.2,9.66-3,11.72-6.22,1.5-.1,3.87-.36,7.56-1a1.72,1.72,0,0,1-.07.21,27.92,27.92,0,0,1-4.77,7.43C34.23,80.27,28.79,82.23,23,81c-4.7-1-8.67-4.45-11.48-10a35.47,35.47,0,0,1-2.9-8.42C7,55.35,7.44,47.55,9.94,42.12c3.05-6.6,6.6-10.35,9.76-12.47a8.17,8.17,0,0,1,16.15-2.23Z"/><line class="cls-2" x1="24.56" y1="30.78" x2="34.95" y2="25.07"/><circle class="cls-4" cx="24.64" cy="30.74" r="1.78"/><path class="cls-2" d="M21.48,36.17s-2.66,0-3.93-4.86"/><path class="cls-2" d="M19,38.8s-2.62.39-4.62-4.2"/><path class="cls-2" d="M16.89,42.06s-2.54.76-5.18-3.5"/><path class="cls-2" d="M15.14,45.54S12.6,46.3,10,42"/><path class="cls-2" d="M14.45,48.91s-2.28,1.37-5.89-2.09"/><path class="cls-2" d="M13.84,52.71S11.57,54.08,8,50.62"/><path class="cls-2" d="M14,56s-1.9,1.85-6.2-.7"/><path class="cls-2" d="M14.44,59.34S13,61.56,8.23,60"/><path class="cls-2" d="M15.21,62.85S14,65.21,9.1,64.15"/><path class="cls-2" d="M16.22,66.63s-.94,2.48-5.92,2"/><path class="cls-2" d="M17.85,69.68s-.53,2.6-5.52,2.91"/><path class="cls-2" d="M19.87,72.47s-.09,2.65-5,3.79"/><path class="cls-2" d="M22.63,74.6s.39,2.63-4.19,4.63"/><path class="cls-2" d="M26.05,75.33s1.06,2.43-2.85,5.55"/><path class="cls-2" d="M29.47,74.83s1.86,1.88-.66,6.2"/><path class="cls-2" d="M32.71,72.84s2.49.92,2,5.9"/><path class="cls-2" d="M35.25,69.83s2.65.16,3.64,5.07"/><path class="cls-1" d="M29.69,62.85c0,.73-.06,1.47-.06,2.21a42,42,0,0,0,84,0c0-.74,0-1.48-.06-2.21-10.12,6.07-25,9.85-41.91,9.85S39.81,68.92,29.69,62.85Z"/><path class="cls-5" d="M71.61,69.19c-16.94,0-32-4-41.54-10.22-.18,1.27-.31,2.57-.38,3.88,10.12,6.07,25,9.85,41.92,9.85s31.79-3.78,41.91-9.85c-.06-1.31-.2-2.61-.38-3.88C103.61,65.17,88.54,69.19,71.61,69.19Z"/><path class="cls-6" d="M108.54,45.12c-.54-1-1.13-2-1.75-2.94-7.14,7-20.62,11.42-35.28,11.42s-28-4.39-35.16-11.31c-.62,1-1.2,1.94-1.74,3,7.93,7.18,21.91,11.68,36.9,11.68S100.64,52.37,108.54,45.12Z"/><ellipse class="cls-7" cx="71.14" cy="118.66" rx="37.4" ry="2.12"/><path class="cls-8" d="M113.14,59a42,42,0,0,0-83.07,0c9.54,6.2,24.6,10.22,41.54,10.22S103.61,65.17,113.14,59Z"/><circle class="cls-4" cx="71.14" cy="71.14" r="9.74"/><path class="cls-6" d="M56.83,55.63A10.19,10.19,0,0,1,64.65,61a10.24,10.24,0,1,0-16.71-2A10.17,10.17,0,0,1,56.83,55.63Z"/><path class="cls-9" d="M57.22,52.43a10.07,10.07,0,0,1,7.44,4.87,8.65,8.65,0,0,0,.53-2.06,8.25,8.25,0,1,0-16.38-2,8.34,8.34,0,0,0,0,2.12A10.08,10.08,0,0,1,57.22,52.43Z"/><path class="cls-6" d="M84.9,56.55A10.21,10.21,0,0,0,77.08,62,10.23,10.23,0,1,1,93.8,59.91,10.23,10.23,0,0,0,84.9,56.55Z"/><path class="cls-9" d="M84.51,53.35a10.05,10.05,0,0,0-7.43,4.87,8.14,8.14,0,0,1-.54-2,8.25,8.25,0,1,1,16.38-2,8.43,8.43,0,0,1,0,2.13A10.06,10.06,0,0,0,84.51,53.35Z"/></svg>