<svg id="Layer_1" data-name="Layer 1" xmlns="http://www.w3.org/2000/svg" viewBox="0 0 141.73 141.73"><defs><style>.cls-1,.cls-12,.cls-3{fill:#fff;}.cls-1,.cls-9{stroke:#757474;}.cls-1,.cls-10,.cls-13,.cls-2,.cls-3,.cls-9{stroke-miterlimit:10;}.cls-2,.cls-9{fill:none;}.cls-10,.cls-13,.cls-2,.cls-3{stroke:#717070;}.cls-4{fill:#717070;}.cls-5{fill:#757474;}.cls-13,.cls-6{fill:#d3d3d3;}.cls-7{fill:#5e77b2;}.cls-8{fill:#e2e2e2;}.cls-10{fill:#d8bd6d;}.cls-11{fill:#d3792a;}</style></defs><title>personaje</title><path class="cls-1" d="M98.63,66.86a35.7,35.7,0,0,0-70.65,0c8.11,5.28,20.92,8.69,35.33,8.69S90.53,72.14,98.63,66.86Z"/><line class="cls-2" x1="81.73" y1="106.22" x2="81.73" y2="106.22"/><path class="cls-3" d="M76.41,109.55a7,7,0,0,1,13.19.57c2.24-.19,5.32-1.07,9.26-3.56,4.68-2.94,9.08-10.74,9.82-17.39.27-2.51.15-6-2-8.1-3.54-3.51-8.31-2.3-11.24-1-1.12-.62-2.93-1.53-5.84-2.81a.88.88,0,0,1,.15-.12,23.37,23.37,0,0,1,6.85-3.08c5.47-1.45,10.25-.33,13.84,3.23,2.89,2.88,4.12,7.19,3.53,12.47a30.32,30.32,0,0,1-1.83,7.35c-2.24,5.87-6.14,11.26-10.44,14-5.23,3.3-9.51,4.32-12.74,4.38a7,7,0,0,1-12.55-5.9Z"/><line class="cls-2" x1="75.96" y1="111.64" x2="86.02" y2="112.38"/><path class="cls-2" d="M90.72,110s1.88,1.24.55,5.28"/><path class="cls-2" d="M93.73,109.27s2.06.94,1.36,5.13"/><path class="cls-2" d="M96.72,107.9s2.16.63,2.07,4.89"/><path class="cls-2" d="M99.58,106.23s2.16.63,2.07,4.89"/><path class="cls-2" d="M101.64,104.14s2.25.08,3.22,4.22"/><path class="cls-2" d="M103.83,101.71s2.26.08,3.23,4.22"/><path class="cls-2" d="M105.2,99.3s2.21-.44,4.1,3.37"/><path class="cls-2" d="M106.48,96.71s2.07-.9,4.73,2.41"/><path class="cls-2" d="M107.55,93.85s2-1.12,5,1.91"/><path class="cls-2" d="M108.59,90.69s1.82-1.34,5.14,1.32"/><path class="cls-2" d="M108.84,87.75s1.58-1.6,5.29.49"/><path class="cls-2" d="M108.69,84.83S110,83,114,84.42"/><path class="cls-2" d="M107.71,82s.94-2,5.14-1.36"/><path class="cls-2" d="M105.61,79.93s.37-2.23,4.61-2.64"/><path class="cls-2" d="M102.94,78.7s-.46-2.21,3.35-4.12"/><path class="cls-2" d="M99.71,78.61S98.36,76.8,101,73.46"/><path class="cls-2" d="M96.5,79.58s-1.81-1.34-.25-5.3"/><circle class="cls-4" cx="85.94" cy="112.38" r="1.51"/><path class="cls-1" d="M27.65,70.17c0,.62,0,1.24,0,1.87A35.71,35.71,0,1,0,99,72c0-.63,0-1.25-.05-1.87-8.61,5.16-21.28,8.37-35.65,8.37S36.26,75.33,27.65,70.17Z"/><path class="cls-5" d="M63.31,75.55c-14.41,0-27.22-3.41-35.33-8.69-.16,1.09-.27,2.19-.33,3.31,8.61,5.16,21.29,8.37,35.66,8.37s27-3.21,35.65-8.37c-.06-1.12-.17-2.22-.33-3.31C90.53,72.14,77.71,75.55,63.31,75.55Z"/><circle class="cls-6" cx="48.98" cy="61.82" r="6.66"/><circle class="cls-6" cx="74.41" cy="62.73" r="6.66"/><path class="cls-6" d="M94.72,55.08c-.46-.85-1-1.69-1.49-2.5-6.07,6-17.53,9.71-30,9.71s-23.8-3.73-29.9-9.61c-.52.81-1,1.65-1.48,2.5,6.74,6.11,18.64,9.94,31.38,9.94S88,61.25,94.72,55.08Z"/><circle class="cls-7" cx="48.98" cy="61.82" r="5.37"/><circle class="cls-7" cx="74.41" cy="62.73" r="5.47"/><ellipse class="cls-8" cx="65.37" cy="127.14" rx="31.81" ry="1.8"/><path class="cls-9" d="M98.63,66.86a35.7,35.7,0,0,0-70.65,0c8.11,5.28,20.92,8.69,35.33,8.69S90.53,72.14,98.63,66.86Z"/><path class="cls-10" d="M71.32,88.92c-2.94-3.81-7.19-5.47-9.5-3.69S60,91.54,63,95.36c2.47,3.2,5.85,4.87,8.24,4.28l19.12,24.83,2.15-1.66L73.35,98C74.53,95.82,73.78,92.12,71.32,88.92Z"/><ellipse class="cls-11" cx="67.14" cy="92.14" rx="4.01" ry="7.22" transform="translate(-42.27 60.09) rotate(-37.59)"/><line class="cls-2" x1="76.2" y1="111.66" x2="86.25" y2="112.4"/><path class="cls-12" d="M76.34,112a6.47,6.47,0,0,0,4.37,6.28,6.58,6.58,0,0,0,7.94-3.06,17.27,17.27,0,0,0,2.43-.28l-.67-2.19Z"/><circle class="cls-4" cx="86.02" cy="112.38" r="1.51"/><path class="cls-13" d="M92.16,23.67A10.86,10.86,0,0,0,72.5,17.29a10.84,10.84,0,0,0-18,.59A10.87,10.87,0,1,0,42.6,34.18v7.59C42.6,44.68,52,47,63.55,47s21-2.36,21-5.27V34.06A10.87,10.87,0,0,0,92.16,23.67Z"/></svg>