<svg id="Layer_1" data-name="Layer 1" xmlns="http://www.w3.org/2000/svg" viewBox="0 0 141.73 141.73"><defs><style>.cls-1{fill:#fff;}.cls-1,.cls-5{stroke:#757474;stroke-miterlimit:10;}.cls-2{fill:#757474;}.cls-3{fill:#d3d3d3;}.cls-4{fill:#e2e2e2;}.cls-5{fill:none;}.cls-6{fill:#5e77b2;}</style></defs><title>personaje</title><path class="cls-1" d="M118.21,56.09a47.85,47.85,0,0,0-94.69,0c10.87,7.08,28,11.65,47.35,11.65S107.35,63.17,118.21,56.09Z"/><path class="cls-1" d="M23.08,60.52C23,61.35,23,62.19,23,63a47.86,47.86,0,0,0,95.71,0c0-.85,0-1.68-.07-2.52-11.54,6.92-28.53,11.22-47.78,11.22S34.62,67.44,23.08,60.52Z"/><path class="cls-2" d="M70.87,67.74c-19.31,0-36.48-4.57-47.35-11.65-.21,1.46-.36,2.94-.44,4.43,11.54,6.92,28.53,11.22,47.79,11.22s36.24-4.3,47.78-11.22c-.08-1.49-.23-3-.44-4.43C107.35,63.17,90.17,67.74,70.87,67.74Z"/><path class="cls-3" d="M113,40.31c-.62-1.15-1.29-2.27-2-3.35-8.13,8-23.5,13-40.21,13S38.85,45,30.68,37.08c-.71,1.09-1.37,2.21-2,3.36,9,8.18,25,13.32,42.07,13.32S104,48.57,113,40.31Z"/><ellipse class="cls-4" cx="70.33" cy="124.14" rx="42.64" ry="2.41"/><path class="cls-5" d="M118.21,56.09a47.85,47.85,0,0,0-94.69,0c10.87,7.08,28,11.65,47.35,11.65S107.35,63.17,118.21,56.09Z"/><path class="cls-3" d="M51.72,53.38a11,11,0,0,1,8.37,5.79A11,11,0,1,0,42.21,57,11,11,0,0,1,51.72,53.38Z"/><path class="cls-6" d="M52.14,50a10.71,10.71,0,0,1,8,5.21A9,9,0,0,0,60.67,53a8.83,8.83,0,0,0-17.53-2.14,9.06,9.06,0,0,0,0,2.27A10.72,10.72,0,0,1,52.14,50Z"/><path class="cls-3" d="M82.61,54.37a10.93,10.93,0,0,0-8.37,5.79A11,11,0,1,1,92.12,58,10.93,10.93,0,0,0,82.61,54.37Z"/><path class="cls-6" d="M82.19,51a10.76,10.76,0,0,0-8,5.21,8.82,8.82,0,1,1,17-4.35,9.13,9.13,0,0,1,0,2.28A10.74,10.74,0,0,0,82.19,51Z"/></svg>