<svg id="Layer_1" data-name="Layer 1" xmlns="http://www.w3.org/2000/svg" viewBox="0 0 141.73 141.73"><defs><style>.cls-1,.cls-7{fill:#fff;}.cls-1,.cls-5{stroke:#757474;stroke-miterlimit:10;}.cls-2{fill:#757474;}.cls-3{fill:#d3d3d3;}.cls-4{fill:#e2e2e2;}.cls-5{fill:none;}.cls-6{fill:#5e77b2;}.cls-8{fill:#717070;}</style></defs><title>personaje</title><path class="cls-1" d="M121.47,59.69a47.85,47.85,0,0,0-94.69,0c10.87,7.08,28,11.65,47.35,11.65S110.61,66.77,121.47,59.69Z"/><path class="cls-1" d="M26.34,64.12c0,.84-.07,1.67-.07,2.52a47.86,47.86,0,0,0,95.71,0c0-.85,0-1.68-.07-2.52C110.37,71,93.38,75.34,74.13,75.34S37.88,71,26.34,64.12Z"/><path class="cls-2" d="M74.13,71.34c-19.31,0-36.48-4.57-47.35-11.65-.21,1.46-.36,2.94-.44,4.43C37.88,71,54.87,75.34,74.13,75.34s36.24-4.3,47.78-11.22c-.08-1.49-.23-3-.44-4.43C110.61,66.77,93.43,71.34,74.13,71.34Z"/><circle class="cls-3" cx="54.92" cy="52.94" r="8.92"/><circle class="cls-3" cx="89" cy="54.15" r="8.92"/><path class="cls-3" d="M116.23,43.91c-.62-1.15-1.29-2.27-2-3.35-8.13,8-23.5,13-40.21,13s-31.91-5-40.08-12.89c-.71,1.09-1.37,2.21-2,3.36,9,8.18,25,13.32,42.07,13.32S107.22,52.17,116.23,43.91Z"/><ellipse class="cls-4" cx="73.59" cy="127.74" rx="42.64" ry="2.41"/><path class="cls-5" d="M121.47,59.69a47.85,47.85,0,0,0-94.69,0c10.87,7.08,28,11.65,47.35,11.65S110.61,66.77,121.47,59.69Z"/><polygon class="cls-6" points="59.52 50.85 55.3 44.79 52.03 47.06 56.26 53.13 50.19 57.35 52.47 60.61 58.53 56.39 61.79 54.12 59.52 50.85"/><polygon class="cls-6" points="84.74 52.01 88.96 45.95 92.22 48.23 88 54.29 94.06 58.51 91.79 61.77 85.73 57.55 82.46 55.28 84.74 52.01"/><polygon class="cls-7" points="51.16 74.71 57.29 68.65 87.39 69.09 92.94 75.78 85.12 77.3 54.51 76.73 51.16 74.71"/><rect class="cls-8" x="45.11" y="70.85" width="15.59" height="5.44" transform="translate(-36.53 58.96) rotate(-45)"/><rect class="cls-8" x="52.55" y="70.85" width="15.59" height="5.44" transform="translate(50.99 168.26) rotate(-135)"/><rect class="cls-8" x="59.98" y="70.85" width="15.59" height="5.44" transform="translate(-32.17 69.47) rotate(-45)"/><rect class="cls-8" x="67.42" y="70.85" width="15.59" height="5.44" transform="translate(76.38 178.77) rotate(-135)"/><rect class="cls-8" x="74.86" y="70.85" width="15.59" height="5.44" transform="translate(-27.81 79.99) rotate(-45)"/><rect class="cls-8" x="82.29" y="70.85" width="15.59" height="5.44" transform="translate(101.77 189.29) rotate(-135)"/></svg>