<svg id="Layer_1" data-name="Layer 1" xmlns="http://www.w3.org/2000/svg" viewBox="0 0 141.73 141.73"><defs><style>.cls-1{fill:#fff;}.cls-1,.cls-6{stroke:#757474;stroke-miterlimit:10;}.cls-2{fill:#757474;}.cls-3{fill:#d3d3d3;}.cls-4{fill:#5e77b2;}.cls-5{fill:#e2e2e2;}.cls-6{fill:none;}</style></defs><title>personaje</title><path class="cls-1" d="M118.21,53.54a47.85,47.85,0,0,0-94.69,0c10.87,7.07,28,11.65,47.35,11.65S107.35,60.61,118.21,53.54Z"/><path class="cls-1" d="M23.08,58c0,.83-.07,1.67-.07,2.51a47.86,47.86,0,0,0,95.71,0c0-.84,0-1.68-.07-2.51-11.54,6.91-28.53,11.22-47.78,11.22S34.62,64.88,23.08,58Z"/><path class="cls-2" d="M70.87,65.19c-19.31,0-36.48-4.58-47.35-11.65-.21,1.45-.36,2.93-.44,4.43,11.54,6.91,28.53,11.22,47.79,11.22S107.11,64.88,118.65,58c-.08-1.5-.23-3-.44-4.43C107.35,60.61,90.17,65.19,70.87,65.19Z"/><circle class="cls-3" cx="51.66" cy="46.78" r="8.92"/><circle class="cls-3" cx="85.74" cy="48" r="8.92"/><path class="cls-3" d="M113,37.75c-.62-1.15-1.29-2.26-2-3.35-8.13,8-23.5,13-40.21,13s-31.91-5-40.08-12.89c-.71,1.09-1.37,2.21-2,3.36,9,8.18,25,13.32,42.07,13.32S104,46,113,37.75Z"/><circle class="cls-4" cx="51.66" cy="46.78" r="7.19"/><circle class="cls-4" cx="85.74" cy="48" r="7.33"/><ellipse class="cls-5" cx="70.33" cy="121.58" rx="42.64" ry="2.41"/><path class="cls-6" d="M118.21,53.54a47.85,47.85,0,0,0-94.69,0c10.87,7.07,28,11.65,47.35,11.65S107.35,60.61,118.21,53.54Z"/></svg>