<svg id="Layer_1" data-name="Layer 1" xmlns="http://www.w3.org/2000/svg" viewBox="0 0 141.73 141.73"><defs><style>.cls-1,.cls-3{fill:#fff;}.cls-1,.cls-9{stroke:#757474;}.cls-1,.cls-10,.cls-2,.cls-3,.cls-9{stroke-miterlimit:10;}.cls-10,.cls-2,.cls-9{fill:none;}.cls-2,.cls-3{stroke:#717070;}.cls-4{fill:#717070;}.cls-5{fill:#757474;}.cls-6{fill:#d3d3d3;}.cls-7{fill:#5e77b2;}.cls-8{fill:#e2e2e2;}.cls-10{stroke:#e2e2e2;}</style></defs><title>personaje</title><path class="cls-1" d="M111.09,55.73a40.61,40.61,0,0,0-80.36,0c9.22,6,23.8,9.89,40.18,9.89S101.87,61.73,111.09,55.73Z"/><line class="cls-2" x1="107.09" y1="31.68" x2="107.09" y2="31.68"/><path class="cls-3" d="M104.08,25.21A7.9,7.9,0,0,0,117,32.84c2,1.57,4.42,4.31,6.64,9.13,2.63,5.71,2,15.88-1.42,22.67-1.3,2.57-3.55,5.78-6.93,6.49-5.55,1.16-9.35-3-11.34-6-1.45-.1-3.74-.35-7.31-.93,0,.06,0,.13.06.2a27.05,27.05,0,0,0,4.62,7.19c4.32,4.77,9.58,6.67,15.21,5.49,4.55-1,8.38-4.3,11.1-9.7a34.17,34.17,0,0,0,2.81-8.14c1.51-7,1.13-14.54-1.3-19.79-2.95-6.39-6.39-10-9.44-12.07a7.91,7.91,0,0,0-15.62-2.15Z"/><line class="cls-2" x1="115" y1="28.46" x2="104.95" y2="22.93"/><circle class="cls-4" cx="114.92" cy="28.41" r="1.72"/><path class="cls-2" d="M118,33.67s2.57,0,3.8-4.7"/><path class="cls-2" d="M120.42,36.21s2.54.38,4.48-4.06"/><path class="cls-2" d="M122.42,39.37s2.46.73,5-3.38"/><path class="cls-2" d="M124.11,42.73s2.46.74,5-3.38"/><path class="cls-2" d="M124.78,46s2.2,1.32,5.7-2"/><path class="cls-2" d="M125.37,49.68s2.2,1.32,5.69-2"/><path class="cls-2" d="M125.17,52.83s1.84,1.79,6-.68"/><path class="cls-2" d="M124.79,56.09s1.41,2.14,6,.63"/><path class="cls-2" d="M124,59.48s1.18,2.28,5.91,1.26"/><path class="cls-2" d="M123.07,63.14s.91,2.4,5.73,1.93"/><path class="cls-2" d="M121.49,66.09s.51,2.52,5.35,2.82"/><path class="cls-2" d="M119.54,68.79s.08,2.57,4.79,3.67"/><path class="cls-2" d="M116.87,70.85s-.38,2.54,4,4.48"/><path class="cls-2" d="M113.55,71.55s-1,2.36,2.77,5.38"/><path class="cls-2" d="M110.25,71.07s-1.8,1.83.64,6"/><path class="cls-2" d="M107.11,69.15s-2.41.89-2,5.71"/><path class="cls-2" d="M104.66,66.23s-2.56.17-3.53,4.91"/><line class="cls-2" x1="34.65" y1="107.2" x2="34.65" y2="107.2"/><path class="cls-3" d="M37.66,113.67A7.91,7.91,0,0,0,24.73,106c-2-1.57-4.41-4.31-6.64-9.13-2.63-5.71-2-15.88,1.43-22.67,1.29-2.57,3.54-5.78,6.92-6.49,5.55-1.16,9.35,3,11.34,6,1.45.1,3.74.35,7.32.93,0-.06,0-.13-.07-.2a27.05,27.05,0,0,0-4.62-7.19c-4.32-4.77-9.58-6.67-15.21-5.49-4.54,1-8.38,4.3-11.1,9.7a34.17,34.17,0,0,0-2.81,8.14c-1.5,7-1.12,14.54,1.3,19.79,2.95,6.39,6.39,10,9.44,12.07a7.91,7.91,0,0,0,15.63,2.15Z"/><line class="cls-2" x1="26.73" y1="110.42" x2="36.79" y2="115.95"/><circle class="cls-4" cx="26.81" cy="110.47" r="1.72"/><path class="cls-2" d="M23.75,105.21s-2.57,0-3.8,4.7"/><path class="cls-2" d="M21.31,102.67s-2.54-.38-4.48,4.06"/><path class="cls-2" d="M19.31,99.51s-2.46-.73-5,3.38"/><path class="cls-2" d="M17.62,96.15s-2.46-.74-5,3.37"/><path class="cls-2" d="M17,92.88s-2.2-1.32-5.69,2"/><path class="cls-2" d="M16.36,89.2s-2.2-1.32-5.69,2"/><path class="cls-2" d="M16.56,86.05s-1.84-1.79-6,.68"/><path class="cls-2" d="M16.94,82.79s-1.41-2.14-6-.63"/><path class="cls-2" d="M17.69,79.39s-1.18-2.28-5.91-1.25"/><path class="cls-2" d="M18.66,75.74s-.91-2.4-5.72-1.93"/><path class="cls-2" d="M20.24,72.79S19.73,70.27,14.9,70"/><path class="cls-2" d="M22.19,70.09s-.08-2.57-4.79-3.67"/><path class="cls-2" d="M24.87,68s.38-2.54-4.06-4.48"/><path class="cls-2" d="M28.18,67.32S29.2,65,25.41,62"/><path class="cls-2" d="M31.48,67.81s1.81-1.83-.63-6"/><path class="cls-2" d="M34.62,69.73s2.41-.89,2-5.71"/><path class="cls-2" d="M37.07,72.64s2.57-.16,3.53-4.9"/><path class="cls-1" d="M30.36,59.49q-.06,1-.06,2.13a40.61,40.61,0,0,0,81.22,0c0-.72,0-1.43,0-2.13C101.67,65.36,87.26,69,70.91,69S40.15,65.36,30.36,59.49Z"/><path class="cls-5" d="M70.91,65.62c-16.38,0-31-3.89-40.18-9.89-.18,1.23-.31,2.49-.37,3.76C40.15,65.36,54.57,69,70.91,69s30.76-3.65,40.56-9.52c-.07-1.27-.2-2.53-.38-3.76C101.87,61.73,87.3,65.62,70.91,65.62Z"/><circle class="cls-6" cx="54.61" cy="49.99" r="7.57"/><circle class="cls-6" cx="83.54" cy="51.03" r="7.57"/><path class="cls-6" d="M106.65,42.33c-.53-1-1.1-1.92-1.7-2.84-6.9,6.76-19.94,11-34.13,11s-27.08-4.24-34-10.94c-.59.93-1.16,1.88-1.68,2.85,7.67,7,21.2,11.31,35.7,11.31S99,49.34,106.65,42.33Z"/><circle class="cls-7" cx="54.61" cy="49.99" r="6.1"/><circle class="cls-7" cx="83.54" cy="51.03" r="6.22"/><ellipse class="cls-8" cx="73.26" cy="124.29" rx="36.19" ry="2.05"/><path class="cls-9" d="M111.09,55.73a40.61,40.61,0,0,0-80.36,0c9.22,6,23.8,9.89,40.18,9.89S101.87,61.73,111.09,55.73Z"/><path class="cls-10" d="M28.3,102.66a8.61,8.61,0,0,1,6.82.78,8.18,8.18,0,0,1,3.72,4.67"/><path class="cls-10" d="M30.73,100.75a7.82,7.82,0,0,1,5.56.82,7.18,7.18,0,0,1,3.36,3.9"/><path class="cls-10" d="M30.17,121.56a8.54,8.54,0,0,1-6.64-1.69,8.08,8.08,0,0,1-3.06-5.13"/><path class="cls-10" d="M27.51,123.13a7.81,7.81,0,0,1-5.4-1.57,7.12,7.12,0,0,1-2.8-4.31"/><path class="cls-10" d="M110.61,17.49a8.61,8.61,0,0,1,6.82.78,8.1,8.1,0,0,1,3.71,4.67"/><path class="cls-10" d="M113,15.58a7.82,7.82,0,0,1,5.56.82A7.22,7.22,0,0,1,122,20.3"/><path class="cls-10" d="M112.48,36.39a8.57,8.57,0,0,1-6.65-1.69,8.1,8.1,0,0,1-3-5.13"/><path class="cls-10" d="M109.82,38a7.81,7.81,0,0,1-5.4-1.57,7.08,7.08,0,0,1-2.8-4.31"/></svg>