<svg id="Layer_1" data-name="Layer 1" xmlns="http://www.w3.org/2000/svg" viewBox="0 0 141.73 141.73"><defs><style>.cls-1{fill:#88b461;}.cls-2{fill:#72a439;}</style></defs><title>texturas</title><rect class="cls-1" width="141.73" height="141.73"/><path class="cls-2" d="M13.49,12.8l-.15.14a2.44,2.44,0,0,1-3.35,0L.69,4A2.22,2.22,0,0,1,.69.8L.84.66a2.46,2.46,0,0,1,3.35,0l9.3,8.92A2.22,2.22,0,0,1,13.49,12.8Z"/><path class="cls-2" d="M27.66,12.8l-.15.14a2.44,2.44,0,0,1-3.35,0L14.86,4a2.22,2.22,0,0,1,0-3.22L15,.66a2.46,2.46,0,0,1,3.35,0l9.3,8.92A2.22,2.22,0,0,1,27.66,12.8Z"/><path class="cls-2" d="M41.81,12.8l-.15.14a2.44,2.44,0,0,1-3.35,0L29,4A2.22,2.22,0,0,1,29,.8l.14-.14a2.47,2.47,0,0,1,3.36,0l9.3,8.92A2.22,2.22,0,0,1,41.81,12.8Z"/><path class="cls-2" d="M56,12.8l-.15.14a2.44,2.44,0,0,1-3.35,0L43.18,4a2.22,2.22,0,0,1,0-3.22l.15-.14a2.46,2.46,0,0,1,3.35,0L56,9.58A2.22,2.22,0,0,1,56,12.8Z"/><path class="cls-2" d="M70.12,12.8l-.14.14a2.45,2.45,0,0,1-3.36,0L57.33,4a2.21,2.21,0,0,1,0-3.22l.14-.14a2.47,2.47,0,0,1,3.36,0l9.29,8.92A2.22,2.22,0,0,1,70.12,12.8Z"/><path class="cls-2" d="M84.29,12.8l-.14.14a2.45,2.45,0,0,1-3.36,0L71.5,4A2.21,2.21,0,0,1,71.5.8l.14-.14A2.47,2.47,0,0,1,75,.66l9.29,8.92A2.21,2.21,0,0,1,84.29,12.8Z"/><path class="cls-2" d="M98.44,12.8l-.15.14a2.44,2.44,0,0,1-3.35,0L85.64,4a2.22,2.22,0,0,1,0-3.22l.15-.14a2.46,2.46,0,0,1,3.35,0l9.3,8.92A2.22,2.22,0,0,1,98.44,12.8Z"/><path class="cls-2" d="M112.61,12.8l-.15.14a2.44,2.44,0,0,1-3.35,0L99.81,4a2.22,2.22,0,0,1,0-3.22L100,.66a2.46,2.46,0,0,1,3.35,0l9.3,8.92A2.22,2.22,0,0,1,112.61,12.8Z"/><path class="cls-2" d="M126.76,12.8l-.15.14a2.44,2.44,0,0,1-3.35,0L114,4A2.22,2.22,0,0,1,114,.8l.15-.14a2.46,2.46,0,0,1,3.35,0l9.3,8.92A2.22,2.22,0,0,1,126.76,12.8Z"/><path class="cls-2" d="M140.93,12.8l-.15.14a2.44,2.44,0,0,1-3.35,0L128.13,4a2.22,2.22,0,0,1,0-3.22l.15-.14a2.46,2.46,0,0,1,3.35,0l9.3,8.92A2.22,2.22,0,0,1,140.93,12.8Z"/><path class="cls-2" d="M121.05,27l.14.14a2.46,2.46,0,0,0,3.35,0l9.3-8.92a2.22,2.22,0,0,0,0-3.22l-.14-.14a2.47,2.47,0,0,0-3.36,0l-9.29,8.92A2.21,2.21,0,0,0,121.05,27Z"/><path class="cls-2" d="M106.87,27l.15.14a2.46,2.46,0,0,0,3.35,0l9.3-8.92a2.22,2.22,0,0,0,0-3.22l-.14-.14a2.47,2.47,0,0,0-3.36,0l-9.3,8.92A2.22,2.22,0,0,0,106.87,27Z"/><path class="cls-2" d="M92.73,27l.14.14a2.47,2.47,0,0,0,3.36,0l9.3-8.92a2.22,2.22,0,0,0,0-3.22l-.15-.14a2.46,2.46,0,0,0-3.35,0l-9.3,8.92A2.22,2.22,0,0,0,92.73,27Z"/><path class="cls-2" d="M78.56,27l.14.14a2.47,2.47,0,0,0,3.36,0l9.29-8.92a2.21,2.21,0,0,0,0-3.22l-.14-.14a2.46,2.46,0,0,0-3.35,0l-9.3,8.92A2.22,2.22,0,0,0,78.56,27Z"/><path class="cls-2" d="M64.41,27l.15.14a2.46,2.46,0,0,0,3.35,0l9.3-8.92a2.22,2.22,0,0,0,0-3.22l-.15-.14a2.46,2.46,0,0,0-3.35,0l-9.3,8.92A2.22,2.22,0,0,0,64.41,27Z"/><path class="cls-2" d="M50.24,27l.15.14a2.46,2.46,0,0,0,3.35,0L63,18.21A2.22,2.22,0,0,0,63,15l-.15-.14a2.46,2.46,0,0,0-3.35,0l-9.3,8.92A2.22,2.22,0,0,0,50.24,27Z"/><path class="cls-2" d="M36.09,27l.15.14a2.46,2.46,0,0,0,3.35,0l9.3-8.92a2.22,2.22,0,0,0,0-3.22l-.14-.14a2.47,2.47,0,0,0-3.36,0l-9.3,8.92A2.22,2.22,0,0,0,36.09,27Z"/><path class="cls-2" d="M21.92,27l.15.14a2.46,2.46,0,0,0,3.35,0l9.3-8.92a2.22,2.22,0,0,0,0-3.22l-.15-.14a2.46,2.46,0,0,0-3.35,0l-9.3,8.92A2.22,2.22,0,0,0,21.92,27Z"/><path class="cls-2" d="M7.78,27l.14.14a2.47,2.47,0,0,0,3.36,0l9.29-8.92a2.21,2.21,0,0,0,0-3.22l-.14-.14a2.47,2.47,0,0,0-3.36,0L7.78,23.77A2.21,2.21,0,0,0,7.78,27Z"/><path class="cls-2" d="M6.4,15l-.14-.14a2.47,2.47,0,0,0-3.36,0L0,17.64v6.71l6.4-6.14A2.21,2.21,0,0,0,6.4,15Z"/><path class="cls-2" d="M135.34,23.77a2.22,2.22,0,0,0,0,3.22l.14.14a2.47,2.47,0,0,0,3.36,0l2.89-2.78V17.64Z"/><path class="cls-2" d="M13.49,41.61l-.15.14a2.46,2.46,0,0,1-3.35,0L.69,32.83a2.22,2.22,0,0,1,0-3.22l.15-.14a2.46,2.46,0,0,1,3.35,0l9.3,8.92A2.22,2.22,0,0,1,13.49,41.61Z"/><path class="cls-2" d="M27.66,41.61l-.15.14a2.46,2.46,0,0,1-3.35,0l-9.3-8.92a2.22,2.22,0,0,1,0-3.22l.15-.14a2.46,2.46,0,0,1,3.35,0l9.3,8.92A2.22,2.22,0,0,1,27.66,41.61Z"/><path class="cls-2" d="M41.81,41.61l-.15.14a2.46,2.46,0,0,1-3.35,0L29,32.83a2.22,2.22,0,0,1,0-3.22l.14-.14a2.47,2.47,0,0,1,3.36,0l9.3,8.92A2.22,2.22,0,0,1,41.81,41.61Z"/><path class="cls-2" d="M56,41.61l-.15.14a2.46,2.46,0,0,1-3.35,0l-9.3-8.92a2.22,2.22,0,0,1,0-3.22l.15-.14a2.46,2.46,0,0,1,3.35,0L56,38.39A2.22,2.22,0,0,1,56,41.61Z"/><path class="cls-2" d="M70.12,41.61l-.14.14a2.47,2.47,0,0,1-3.36,0l-9.29-8.92a2.21,2.21,0,0,1,0-3.22l.14-.14a2.47,2.47,0,0,1,3.36,0l9.29,8.92A2.22,2.22,0,0,1,70.12,41.61Z"/><path class="cls-2" d="M84.29,41.61l-.14.14a2.47,2.47,0,0,1-3.36,0L71.5,32.83a2.21,2.21,0,0,1,0-3.22l.14-.14a2.47,2.47,0,0,1,3.36,0l9.29,8.92A2.21,2.21,0,0,1,84.29,41.61Z"/><path class="cls-2" d="M98.44,41.61l-.15.14a2.46,2.46,0,0,1-3.35,0l-9.3-8.92a2.22,2.22,0,0,1,0-3.22l.15-.14a2.46,2.46,0,0,1,3.35,0l9.3,8.92A2.22,2.22,0,0,1,98.44,41.61Z"/><path class="cls-2" d="M112.61,41.61l-.15.14a2.46,2.46,0,0,1-3.35,0l-9.3-8.92a2.22,2.22,0,0,1,0-3.22l.15-.14a2.46,2.46,0,0,1,3.35,0l9.3,8.92A2.22,2.22,0,0,1,112.61,41.61Z"/><path class="cls-2" d="M126.76,41.61l-.15.14a2.46,2.46,0,0,1-3.35,0L114,32.83a2.22,2.22,0,0,1,0-3.22l.15-.14a2.46,2.46,0,0,1,3.35,0l9.3,8.92A2.22,2.22,0,0,1,126.76,41.61Z"/><path class="cls-2" d="M140.93,41.61l-.15.14a2.46,2.46,0,0,1-3.35,0l-9.3-8.92a2.22,2.22,0,0,1,0-3.22l.15-.14a2.46,2.46,0,0,1,3.35,0l9.3,8.92A2.22,2.22,0,0,1,140.93,41.61Z"/><path class="cls-2" d="M121.05,55.8l.14.14a2.46,2.46,0,0,0,3.35,0l9.3-8.92a2.22,2.22,0,0,0,0-3.22l-.14-.14a2.47,2.47,0,0,0-3.36,0l-9.29,8.92A2.21,2.21,0,0,0,121.05,55.8Z"/><path class="cls-2" d="M106.87,55.8l.15.14a2.46,2.46,0,0,0,3.35,0l9.3-8.92a2.22,2.22,0,0,0,0-3.22l-.14-.14a2.47,2.47,0,0,0-3.36,0l-9.3,8.92A2.22,2.22,0,0,0,106.87,55.8Z"/><path class="cls-2" d="M92.73,55.8l.14.14a2.47,2.47,0,0,0,3.36,0l9.3-8.92a2.22,2.22,0,0,0,0-3.22l-.15-.14a2.46,2.46,0,0,0-3.35,0l-9.3,8.92A2.22,2.22,0,0,0,92.73,55.8Z"/><path class="cls-2" d="M78.56,55.8l.14.14a2.47,2.47,0,0,0,3.36,0L91.35,47a2.21,2.21,0,0,0,0-3.22l-.14-.14a2.46,2.46,0,0,0-3.35,0l-9.3,8.92A2.22,2.22,0,0,0,78.56,55.8Z"/><path class="cls-2" d="M64.41,55.8l.15.14a2.46,2.46,0,0,0,3.35,0L77.21,47a2.22,2.22,0,0,0,0-3.22l-.15-.14a2.46,2.46,0,0,0-3.35,0l-9.3,8.92A2.22,2.22,0,0,0,64.41,55.8Z"/><path class="cls-2" d="M50.24,55.8l.15.14a2.46,2.46,0,0,0,3.35,0L63,47a2.22,2.22,0,0,0,0-3.22l-.15-.14a2.46,2.46,0,0,0-3.35,0l-9.3,8.92A2.22,2.22,0,0,0,50.24,55.8Z"/><path class="cls-2" d="M36.09,55.8l.15.14a2.46,2.46,0,0,0,3.35,0L48.89,47a2.22,2.22,0,0,0,0-3.22l-.14-.14a2.47,2.47,0,0,0-3.36,0l-9.3,8.92A2.22,2.22,0,0,0,36.09,55.8Z"/><path class="cls-2" d="M21.92,55.8l.15.14a2.46,2.46,0,0,0,3.35,0L34.72,47a2.22,2.22,0,0,0,0-3.22l-.15-.14a2.46,2.46,0,0,0-3.35,0l-9.3,8.92A2.22,2.22,0,0,0,21.92,55.8Z"/><path class="cls-2" d="M7.78,55.8l.14.14a2.47,2.47,0,0,0,3.36,0L20.57,47a2.21,2.21,0,0,0,0-3.22l-.14-.14a2.47,2.47,0,0,0-3.36,0L7.78,52.58A2.21,2.21,0,0,0,7.78,55.8Z"/><path class="cls-2" d="M6.4,43.8l-.14-.14a2.47,2.47,0,0,0-3.36,0L0,46.45v6.71L6.4,47A2.21,2.21,0,0,0,6.4,43.8Z"/><path class="cls-2" d="M135.34,52.58a2.22,2.22,0,0,0,0,3.22l.14.14a2.47,2.47,0,0,0,3.36,0l2.89-2.78V46.45Z"/><path class="cls-2" d="M13.49,70l-.15.14a2.46,2.46,0,0,1-3.35,0L.69,61.21A2.22,2.22,0,0,1,.69,58l.15-.14a2.44,2.44,0,0,1,3.35,0l9.3,8.92A2.22,2.22,0,0,1,13.49,70Z"/><path class="cls-2" d="M27.66,70l-.15.14a2.46,2.46,0,0,1-3.35,0l-9.3-8.92a2.22,2.22,0,0,1,0-3.22l.15-.14a2.44,2.44,0,0,1,3.35,0l9.3,8.92A2.22,2.22,0,0,1,27.66,70Z"/><path class="cls-2" d="M41.81,70l-.15.14a2.46,2.46,0,0,1-3.35,0L29,61.21A2.22,2.22,0,0,1,29,58l.14-.14a2.45,2.45,0,0,1,3.36,0l9.3,8.92A2.22,2.22,0,0,1,41.81,70Z"/><path class="cls-2" d="M56,70l-.15.14a2.46,2.46,0,0,1-3.35,0l-9.3-8.92a2.22,2.22,0,0,1,0-3.22l.15-.14a2.44,2.44,0,0,1,3.35,0L56,66.77A2.22,2.22,0,0,1,56,70Z"/><path class="cls-2" d="M70.12,70l-.14.14a2.47,2.47,0,0,1-3.36,0l-9.29-8.92a2.21,2.21,0,0,1,0-3.22l.14-.14a2.45,2.45,0,0,1,3.36,0l9.29,8.92A2.22,2.22,0,0,1,70.12,70Z"/><path class="cls-2" d="M84.29,70l-.14.14a2.47,2.47,0,0,1-3.36,0L71.5,61.21a2.21,2.21,0,0,1,0-3.22l.14-.14a2.45,2.45,0,0,1,3.36,0l9.29,8.92A2.21,2.21,0,0,1,84.29,70Z"/><path class="cls-2" d="M98.44,70l-.15.14a2.46,2.46,0,0,1-3.35,0l-9.3-8.92a2.22,2.22,0,0,1,0-3.22l.15-.14a2.44,2.44,0,0,1,3.35,0l9.3,8.92A2.22,2.22,0,0,1,98.44,70Z"/><path class="cls-2" d="M112.61,70l-.15.14a2.46,2.46,0,0,1-3.35,0l-9.3-8.92a2.22,2.22,0,0,1,0-3.22l.15-.14a2.44,2.44,0,0,1,3.35,0l9.3,8.92A2.22,2.22,0,0,1,112.61,70Z"/><path class="cls-2" d="M126.76,70l-.15.14a2.46,2.46,0,0,1-3.35,0L114,61.21A2.22,2.22,0,0,1,114,58l.15-.14a2.44,2.44,0,0,1,3.35,0l9.3,8.92A2.22,2.22,0,0,1,126.76,70Z"/><path class="cls-2" d="M140.93,70l-.15.14a2.46,2.46,0,0,1-3.35,0l-9.3-8.92a2.22,2.22,0,0,1,0-3.22l.15-.14a2.44,2.44,0,0,1,3.35,0l9.3,8.92A2.22,2.22,0,0,1,140.93,70Z"/><path class="cls-2" d="M121.05,84.17l.14.14a2.44,2.44,0,0,0,3.35,0l9.3-8.92a2.21,2.21,0,0,0,0-3.21L133.7,72a2.45,2.45,0,0,0-3.36,0L121.05,81A2.2,2.2,0,0,0,121.05,84.17Z"/><path class="cls-2" d="M106.87,84.17l.15.14a2.44,2.44,0,0,0,3.35,0l9.3-8.92a2.21,2.21,0,0,0,0-3.21l-.14-.14a2.45,2.45,0,0,0-3.36,0L106.87,81A2.21,2.21,0,0,0,106.87,84.17Z"/><path class="cls-2" d="M92.73,84.17l.14.14a2.45,2.45,0,0,0,3.36,0l9.3-8.92a2.21,2.21,0,0,0,0-3.21l-.15-.14A2.44,2.44,0,0,0,102,72L92.73,81A2.21,2.21,0,0,0,92.73,84.17Z"/><path class="cls-2" d="M78.56,84.17l.14.14a2.45,2.45,0,0,0,3.36,0l9.29-8.92a2.2,2.2,0,0,0,0-3.21L91.21,72a2.44,2.44,0,0,0-3.35,0L78.56,81A2.21,2.21,0,0,0,78.56,84.17Z"/><path class="cls-2" d="M64.41,84.17l.15.14a2.44,2.44,0,0,0,3.35,0l9.3-8.92a2.21,2.21,0,0,0,0-3.21L77.06,72a2.44,2.44,0,0,0-3.35,0L64.41,81A2.21,2.21,0,0,0,64.41,84.17Z"/><path class="cls-2" d="M50.24,84.17l.15.14a2.44,2.44,0,0,0,3.35,0L63,75.39a2.21,2.21,0,0,0,0-3.21L62.89,72a2.44,2.44,0,0,0-3.35,0L50.24,81A2.21,2.21,0,0,0,50.24,84.17Z"/><path class="cls-2" d="M36.09,84.17l.15.14a2.44,2.44,0,0,0,3.35,0l9.3-8.92a2.21,2.21,0,0,0,0-3.21L48.75,72a2.45,2.45,0,0,0-3.36,0L36.09,81A2.21,2.21,0,0,0,36.09,84.17Z"/><path class="cls-2" d="M21.92,84.17l.15.14a2.44,2.44,0,0,0,3.35,0l9.3-8.92a2.21,2.21,0,0,0,0-3.21L34.57,72a2.44,2.44,0,0,0-3.35,0L21.92,81A2.21,2.21,0,0,0,21.92,84.17Z"/><path class="cls-2" d="M7.78,84.17l.14.14a2.45,2.45,0,0,0,3.36,0l9.29-8.92a2.2,2.2,0,0,0,0-3.21L20.43,72a2.45,2.45,0,0,0-3.36,0L7.78,81A2.2,2.2,0,0,0,7.78,84.17Z"/><path class="cls-2" d="M6.4,72.18,6.26,72A2.45,2.45,0,0,0,2.9,72L0,74.82v6.72l6.4-6.15A2.2,2.2,0,0,0,6.4,72.18Z"/><path class="cls-2" d="M135.34,81a2.21,2.21,0,0,0,0,3.21l.14.14a2.45,2.45,0,0,0,3.36,0l2.89-2.77V74.82Z"/><path class="cls-2" d="M13.49,98.36l-.15.14a2.44,2.44,0,0,1-3.35,0L.69,89.58a2.21,2.21,0,0,1,0-3.21l.15-.14a2.44,2.44,0,0,1,3.35,0l9.3,8.92A2.21,2.21,0,0,1,13.49,98.36Z"/><path class="cls-2" d="M27.66,98.36l-.15.14a2.44,2.44,0,0,1-3.35,0l-9.3-8.92a2.21,2.21,0,0,1,0-3.21l.15-.14a2.44,2.44,0,0,1,3.35,0l9.3,8.92A2.21,2.21,0,0,1,27.66,98.36Z"/><path class="cls-2" d="M41.81,98.36l-.15.14a2.44,2.44,0,0,1-3.35,0L29,89.58a2.21,2.21,0,0,1,0-3.21l.14-.14a2.45,2.45,0,0,1,3.36,0l9.3,8.92A2.21,2.21,0,0,1,41.81,98.36Z"/><path class="cls-2" d="M56,98.36l-.15.14a2.44,2.44,0,0,1-3.35,0l-9.3-8.92a2.21,2.21,0,0,1,0-3.21l.15-.14a2.44,2.44,0,0,1,3.35,0L56,95.15A2.21,2.21,0,0,1,56,98.36Z"/><path class="cls-2" d="M70.12,98.36,70,98.5a2.45,2.45,0,0,1-3.36,0l-9.29-8.92a2.2,2.2,0,0,1,0-3.21l.14-.14a2.45,2.45,0,0,1,3.36,0l9.29,8.92A2.21,2.21,0,0,1,70.12,98.36Z"/><path class="cls-2" d="M84.29,98.36l-.14.14a2.45,2.45,0,0,1-3.36,0L71.5,89.58a2.2,2.2,0,0,1,0-3.21l.14-.14a2.45,2.45,0,0,1,3.36,0l9.29,8.92A2.2,2.2,0,0,1,84.29,98.36Z"/><path class="cls-2" d="M98.44,98.36l-.15.14a2.44,2.44,0,0,1-3.35,0l-9.3-8.92a2.21,2.21,0,0,1,0-3.21l.15-.14a2.44,2.44,0,0,1,3.35,0l9.3,8.92A2.21,2.21,0,0,1,98.44,98.36Z"/><path class="cls-2" d="M112.61,98.36l-.15.14a2.44,2.44,0,0,1-3.35,0l-9.3-8.92a2.21,2.21,0,0,1,0-3.21l.15-.14a2.44,2.44,0,0,1,3.35,0l9.3,8.92A2.21,2.21,0,0,1,112.61,98.36Z"/><path class="cls-2" d="M126.76,98.36l-.15.14a2.44,2.44,0,0,1-3.35,0L114,89.58a2.21,2.21,0,0,1,0-3.21l.15-.14a2.44,2.44,0,0,1,3.35,0l9.3,8.92A2.21,2.21,0,0,1,126.76,98.36Z"/><path class="cls-2" d="M140.93,98.36l-.15.14a2.44,2.44,0,0,1-3.35,0l-9.3-8.92a2.21,2.21,0,0,1,0-3.21l.15-.14a2.44,2.44,0,0,1,3.35,0l9.3,8.92A2.21,2.21,0,0,1,140.93,98.36Z"/><path class="cls-2" d="M121.05,112.55l.14.14a2.44,2.44,0,0,0,3.35,0l9.3-8.92a2.22,2.22,0,0,0,0-3.22l-.14-.14a2.47,2.47,0,0,0-3.36,0l-9.29,8.92A2.21,2.21,0,0,0,121.05,112.55Z"/><path class="cls-2" d="M106.87,112.55l.15.14a2.44,2.44,0,0,0,3.35,0l9.3-8.92a2.22,2.22,0,0,0,0-3.22l-.14-.14a2.47,2.47,0,0,0-3.36,0l-9.3,8.92A2.22,2.22,0,0,0,106.87,112.55Z"/><path class="cls-2" d="M92.73,112.55l.14.14a2.45,2.45,0,0,0,3.36,0l9.3-8.92a2.22,2.22,0,0,0,0-3.22l-.15-.14a2.46,2.46,0,0,0-3.35,0l-9.3,8.92A2.22,2.22,0,0,0,92.73,112.55Z"/><path class="cls-2" d="M78.56,112.55l.14.14a2.45,2.45,0,0,0,3.36,0l9.29-8.92a2.21,2.21,0,0,0,0-3.22l-.14-.14a2.46,2.46,0,0,0-3.35,0l-9.3,8.92A2.22,2.22,0,0,0,78.56,112.55Z"/><path class="cls-2" d="M64.41,112.55l.15.14a2.44,2.44,0,0,0,3.35,0l9.3-8.92a2.22,2.22,0,0,0,0-3.22l-.15-.14a2.46,2.46,0,0,0-3.35,0l-9.3,8.92A2.22,2.22,0,0,0,64.41,112.55Z"/><path class="cls-2" d="M50.24,112.55l.15.14a2.44,2.44,0,0,0,3.35,0l9.3-8.92a2.22,2.22,0,0,0,0-3.22l-.15-.14a2.46,2.46,0,0,0-3.35,0l-9.3,8.92A2.22,2.22,0,0,0,50.24,112.55Z"/><path class="cls-2" d="M36.09,112.55l.15.14a2.44,2.44,0,0,0,3.35,0l9.3-8.92a2.22,2.22,0,0,0,0-3.22l-.14-.14a2.47,2.47,0,0,0-3.36,0l-9.3,8.92A2.22,2.22,0,0,0,36.09,112.55Z"/><path class="cls-2" d="M21.92,112.55l.15.14a2.44,2.44,0,0,0,3.35,0l9.3-8.92a2.22,2.22,0,0,0,0-3.22l-.15-.14a2.46,2.46,0,0,0-3.35,0l-9.3,8.92A2.22,2.22,0,0,0,21.92,112.55Z"/><path class="cls-2" d="M7.78,112.55l.14.14a2.45,2.45,0,0,0,3.36,0l9.29-8.92a2.21,2.21,0,0,0,0-3.22l-.14-.14a2.47,2.47,0,0,0-3.36,0l-9.29,8.92A2.21,2.21,0,0,0,7.78,112.55Z"/><path class="cls-2" d="M6.4,100.55l-.14-.14a2.47,2.47,0,0,0-3.36,0L0,103.2v6.71l6.4-6.14A2.21,2.21,0,0,0,6.4,100.55Z"/><path class="cls-2" d="M135.34,109.33a2.22,2.22,0,0,0,0,3.22l.14.14a2.45,2.45,0,0,0,3.36,0l2.89-2.78V103.2Z"/><path class="cls-2" d="M13.49,126.74l-.15.14a2.46,2.46,0,0,1-3.35,0L.69,118a2.22,2.22,0,0,1,0-3.22l.15-.14a2.46,2.46,0,0,1,3.35,0l9.3,8.92A2.22,2.22,0,0,1,13.49,126.74Z"/><path class="cls-2" d="M27.66,126.74l-.15.14a2.46,2.46,0,0,1-3.35,0L14.86,118a2.22,2.22,0,0,1,0-3.22l.15-.14a2.46,2.46,0,0,1,3.35,0l9.3,8.92A2.22,2.22,0,0,1,27.66,126.74Z"/><path class="cls-2" d="M41.81,126.74l-.15.14a2.46,2.46,0,0,1-3.35,0L29,118a2.22,2.22,0,0,1,0-3.22l.14-.14a2.47,2.47,0,0,1,3.36,0l9.3,8.92A2.22,2.22,0,0,1,41.81,126.74Z"/><path class="cls-2" d="M56,126.74l-.15.14a2.46,2.46,0,0,1-3.35,0L43.18,118a2.22,2.22,0,0,1,0-3.22l.15-.14a2.46,2.46,0,0,1,3.35,0l9.3,8.92A2.22,2.22,0,0,1,56,126.74Z"/><path class="cls-2" d="M70.12,126.74l-.14.14a2.47,2.47,0,0,1-3.36,0L57.33,118a2.21,2.21,0,0,1,0-3.22l.14-.14a2.47,2.47,0,0,1,3.36,0l9.29,8.92A2.22,2.22,0,0,1,70.12,126.74Z"/><path class="cls-2" d="M84.29,126.74l-.14.14a2.47,2.47,0,0,1-3.36,0L71.5,118a2.21,2.21,0,0,1,0-3.22l.14-.14a2.47,2.47,0,0,1,3.36,0l9.29,8.92A2.21,2.21,0,0,1,84.29,126.74Z"/><path class="cls-2" d="M98.44,126.74l-.15.14a2.46,2.46,0,0,1-3.35,0L85.64,118a2.22,2.22,0,0,1,0-3.22l.15-.14a2.46,2.46,0,0,1,3.35,0l9.3,8.92A2.22,2.22,0,0,1,98.44,126.74Z"/><path class="cls-2" d="M112.61,126.74l-.15.14a2.46,2.46,0,0,1-3.35,0L99.81,118a2.22,2.22,0,0,1,0-3.22l.15-.14a2.46,2.46,0,0,1,3.35,0l9.3,8.92A2.22,2.22,0,0,1,112.61,126.74Z"/><path class="cls-2" d="M126.76,126.74l-.15.14a2.46,2.46,0,0,1-3.35,0L114,118a2.22,2.22,0,0,1,0-3.22l.15-.14a2.46,2.46,0,0,1,3.35,0l9.3,8.92A2.22,2.22,0,0,1,126.76,126.74Z"/><path class="cls-2" d="M140.93,126.74l-.15.14a2.46,2.46,0,0,1-3.35,0l-9.3-8.92a2.22,2.22,0,0,1,0-3.22l.15-.14a2.46,2.46,0,0,1,3.35,0l9.3,8.92A2.22,2.22,0,0,1,140.93,126.74Z"/><path class="cls-2" d="M121.05,140.93l.14.14a2.46,2.46,0,0,0,3.35,0l9.3-8.92a2.22,2.22,0,0,0,0-3.22l-.14-.14a2.47,2.47,0,0,0-3.36,0l-9.29,8.92A2.21,2.21,0,0,0,121.05,140.93Z"/><path class="cls-2" d="M106.87,140.93l.15.14a2.46,2.46,0,0,0,3.35,0l9.3-8.92a2.22,2.22,0,0,0,0-3.22l-.14-.14a2.47,2.47,0,0,0-3.36,0l-9.3,8.92A2.22,2.22,0,0,0,106.87,140.93Z"/><path class="cls-2" d="M92.73,140.93l.14.14a2.47,2.47,0,0,0,3.36,0l9.3-8.92a2.22,2.22,0,0,0,0-3.22l-.15-.14a2.46,2.46,0,0,0-3.35,0l-9.3,8.92A2.22,2.22,0,0,0,92.73,140.93Z"/><path class="cls-2" d="M78.56,140.93l.14.14a2.47,2.47,0,0,0,3.36,0l9.29-8.92a2.21,2.21,0,0,0,0-3.22l-.14-.14a2.46,2.46,0,0,0-3.35,0l-9.3,8.92A2.22,2.22,0,0,0,78.56,140.93Z"/><path class="cls-2" d="M64.41,140.93l.15.14a2.46,2.46,0,0,0,3.35,0l9.3-8.92a2.22,2.22,0,0,0,0-3.22l-.15-.14a2.46,2.46,0,0,0-3.35,0l-9.3,8.92A2.22,2.22,0,0,0,64.41,140.93Z"/><path class="cls-2" d="M50.24,140.93l.15.14a2.46,2.46,0,0,0,3.35,0l9.3-8.92a2.22,2.22,0,0,0,0-3.22l-.15-.14a2.46,2.46,0,0,0-3.35,0l-9.3,8.92A2.22,2.22,0,0,0,50.24,140.93Z"/><path class="cls-2" d="M36.09,140.93l.15.14a2.46,2.46,0,0,0,3.35,0l9.3-8.92a2.22,2.22,0,0,0,0-3.22l-.14-.14a2.47,2.47,0,0,0-3.36,0l-9.3,8.92A2.22,2.22,0,0,0,36.09,140.93Z"/><path class="cls-2" d="M21.92,140.93l.15.14a2.46,2.46,0,0,0,3.35,0l9.3-8.92a2.22,2.22,0,0,0,0-3.22l-.15-.14a2.46,2.46,0,0,0-3.35,0l-9.3,8.92A2.22,2.22,0,0,0,21.92,140.93Z"/><path class="cls-2" d="M7.78,140.93l.14.14a2.47,2.47,0,0,0,3.36,0l9.29-8.92a2.21,2.21,0,0,0,0-3.22l-.14-.14a2.47,2.47,0,0,0-3.36,0l-9.29,8.92A2.21,2.21,0,0,0,7.78,140.93Z"/><path class="cls-2" d="M6.4,128.93l-.14-.14a2.47,2.47,0,0,0-3.36,0L0,131.58v6.71l6.4-6.14A2.21,2.21,0,0,0,6.4,128.93Z"/><path class="cls-2" d="M135.34,137.71a2.22,2.22,0,0,0,0,3.22l.14.14a2.47,2.47,0,0,0,3.36,0l2.89-2.78v-6.71Z"/></svg>