<svg id="Layer_1" data-name="Layer 1" xmlns="http://www.w3.org/2000/svg" viewBox="0 0 141.73 141.73"><defs><style>.cls-1{fill:#9ec5d8;}.cls-2{fill:#8abde4;}</style></defs><title>texturas</title><rect class="cls-1" width="141.73" height="141.73"/><circle class="cls-2" cx="70.87" cy="71.37" r="35.43"/><path class="cls-2" d="M70.87,35.43A35.43,35.43,0,0,0,106.3,0H35.43A35.44,35.44,0,0,0,70.87,35.43Z"/><path class="cls-2" d="M141.73,0H106.3a35.43,35.43,0,0,0,35.43,35.43Z"/><path class="cls-2" d="M141.73,35.94a35.44,35.44,0,0,0,0,70.87Z"/><path class="cls-2" d="M0,35.94v70.87A35.44,35.44,0,0,0,35.43,71.37,35.43,35.43,0,0,0,0,35.94Z"/><path class="cls-2" d="M0,0V35.43A35.43,35.43,0,0,0,35.43,0Z"/><path class="cls-2" d="M35.41,141.73A35.42,35.42,0,0,0,0,107.32v34.41Z"/><path class="cls-2" d="M106.27,141.73a35.42,35.42,0,0,0-70.81,0Z"/><path class="cls-2" d="M141.73,141.73V107.32a35.42,35.42,0,0,0-35.41,34.41Z"/></svg>